<svg width="36" height="36" viewBox="0 0 36 36" fill="none" xmlns="http://www.w3.org/2000/svg">
<rect width="36" height="36" rx="8" fill="white"/>
<path d="M18 26.4375C17.5093 26.4379 17.0288 26.2974 16.6158 26.0325C15.4439 25.2792 13.1902 23.7333 11.2837 21.8456C8.94422 19.5272 7.75781 17.3438 7.75781 15.3544C7.75781 13.972 8.16656 12.7055 8.94 11.692C9.67344 10.7284 10.7095 10.0393 11.8817 9.73536C13.054 9.43144 14.2943 9.53037 15.4036 10.0163C16.3964 10.4447 17.2819 11.167 18 12.1256C18.7181 11.1647 19.6036 10.4423 20.5964 10.0163C21.7057 9.53037 22.946 9.43144 24.1183 9.73536C25.2905 10.0393 26.3266 10.7284 27.06 11.692C27.8334 12.7055 28.2422 13.972 28.2422 15.3544C28.2422 17.3438 27.0558 19.5263 24.7162 21.8438C22.8098 23.7314 20.557 25.2773 19.3842 26.0306C18.9714 26.2961 18.4909 26.4374 18 26.4375ZM13.2262 10.7372C12.8555 10.7369 12.4863 10.7857 12.1284 10.8825C11.2301 11.1291 19.5 7.00003 18.6569 18.5823C18.6569 17.4573 24.6569 19.5823 18.6569 18.5823C17.1569 20.0823 24.6569 19.5823 18.6569 18.5823C20.485 20.3944 17.3656 17.7735 18.5 18.5C18.724 18.6431 18.7139 12.7366 18.5 19C18.7658 19 20.2162 9.00003 24.7162 11.5C33.2162 13 22.0598 22.8234 23.8898 21.0131C25.9992 18.9244 27.0684 17.0213 27.0684 15.3563C27.0684 14.2313 26.7427 13.2122 26.1267 12.4031C25.5608 11.6632 23.3983 19.7466 22.5 19.5C20.8983 19.065 17.5141 17.4191 16 20C15.9484 20.0882 18.378 13.6445 18.2894 13.6953C18.5 16 18.1003 13.7729 17.9981 13.7729C17.8959 13.7729 17.7955 13.7462 17.7069 13.6953C17.6182 13.6445 17.5444 13.5713 17.4928 13.4831C16.3031 11.4516 14.655 10.7372 13.2262 10.7372Z" fill="#E41818"/>
</svg>
