<svg width="52" height="23" viewBox="0 0 52 23" fill="none" xmlns="http://www.w3.org/2000/svg">
<path d="M10.0906 3.52472C9.50665 4.23224 8.51836 4.76007 7.73223 4.76007C7.64239 4.76007 7.55254 4.74884 7.49639 4.73761C7.48516 4.69269 7.4627 4.55792 7.4627 4.42316C7.4627 3.52472 7.92315 2.62628 8.41729 2.06476C9.0462 1.32355 10.1019 0.773254 10.9778 0.739563C11.0003 0.840637 11.0115 0.964172 11.0115 1.08771C11.0115 1.98615 10.6297 2.87335 10.0906 3.52472ZM10.7083 4.95099C11.2024 4.95099 12.9881 4.99591 14.1561 6.68048C14.055 6.75909 12.2806 7.75861 12.2806 9.99347C12.2806 12.5765 14.5379 13.4974 14.6053 13.5198C14.594 13.576 14.2459 14.7664 13.4148 15.9905C12.6736 17.0574 11.8875 18.1356 10.7083 18.1356C9.51788 18.1356 9.21465 17.4393 7.85577 17.4393C6.51934 17.4393 6.04766 18.158 4.96954 18.158C3.88018 18.158 3.12774 17.1585 2.26299 15.9456C1.25225 14.5081 0.443657 12.2845 0.443657 10.1732C0.443657 6.79279 2.64483 4.99591 4.81231 4.99591C5.95782 4.99591 6.91241 5.74835 7.64239 5.74835C8.32745 5.74835 9.39434 4.95099 10.7083 4.95099ZM16.1673 18.0345V1.82892H22.636C25.9265 1.82892 28.1502 3.9964 28.1502 7.242V7.26447C28.1502 10.4988 25.9265 12.6776 22.636 12.6776H19.0647V18.0345H16.1673ZM21.9285 4.19855H19.0647V10.3416H21.9285C24.0061 10.3416 25.219 9.21857 25.219 7.2757V7.25323C25.219 5.31036 24.0061 4.19855 21.9285 4.19855ZM32.7331 18.2366C30.3972 18.2366 28.7014 16.7991 28.7014 14.5643V14.5418C28.7014 12.3519 30.3747 11.0716 33.362 10.8919L36.5178 10.701V9.64532C36.5178 8.4212 35.7204 7.74738 34.2156 7.74738C32.9353 7.74738 32.1042 8.20782 31.8235 9.01642L31.8122 9.06134H29.1731L29.1843 8.96027C29.4538 6.89386 31.4304 5.52374 34.3503 5.52374C37.5061 5.52374 39.2805 7.05109 39.2805 9.64532V18.0345H36.5178V16.3499H36.3269C35.6531 17.5403 34.3503 18.2366 32.7331 18.2366ZM31.4641 14.4295C31.4641 15.4739 32.3513 16.0916 33.5866 16.0916C35.2712 16.0916 36.5178 14.991 36.5178 13.5311V12.5428L33.7551 12.7225C32.1941 12.8235 31.4641 13.3963 31.4641 14.407V14.4295ZM42.3474 22.347C42.0104 22.347 41.6174 22.3358 41.2805 22.3021V20.157C41.5051 20.1795 41.8195 20.1907 42.1115 20.1907C43.257 20.1907 43.9421 19.7191 44.2453 18.6072L44.3913 18.0457L40.0002 5.75958H43.0549L45.9186 15.3504H46.132L48.9846 5.75958H51.9269L47.5246 18.2928C46.4689 21.3699 45.0651 22.347 42.3474 22.347Z" fill="white"/>
</svg>
