<svg width="24" height="25" viewBox="0 0 24 25" fill="none" xmlns="http://www.w3.org/2000/svg">
<g clip-path="url(#clip0_536_2117)">
<path d="M7.65595 19.1677C6.27214 19.1677 5.15039 20.2895 5.15039 21.6732C5.15039 23.057 6.27219 24.1788 7.65595 24.1788C9.03976 24.1788 10.1615 23.057 10.1615 21.6732C10.1616 20.2895 9.03976 19.1677 7.65595 19.1677ZM7.65595 23.0652C6.88718 23.0652 6.26398 22.442 6.26398 21.6733C6.26398 20.9045 6.88718 20.2813 7.65595 20.2813C8.42472 20.2813 9.04791 20.9045 9.04791 21.6733C9.04796 22.442 8.42472 23.0652 7.65595 23.0652Z" fill="#43B749"/>
<path d="M18.235 19.1677C16.8512 19.1677 15.7295 20.2895 15.7295 21.6732C15.7295 23.057 16.8513 24.1788 18.235 24.1788C19.6188 24.1788 20.7406 23.057 20.7406 21.6732C20.7406 20.2895 19.6189 19.1677 18.235 19.1677ZM18.235 23.0652C17.4663 23.0652 16.8431 22.442 16.8431 21.6733C16.8431 20.9045 17.4663 20.2813 18.235 20.2813C19.0038 20.2813 19.627 20.9045 19.627 21.6733C19.6271 22.442 19.0038 23.0652 18.235 23.0652Z" fill="#43B749"/>
<path d="M23.8865 4.5518C23.7705 4.42514 23.6119 4.34585 23.4411 4.32906L5.31741 4.0785L4.8163 2.5473C4.46327 1.52371 3.50474 0.832685 2.42206 0.821228H0.556796C0.249277 0.821228 0 1.0705 0 1.37802C0 1.68554 0.249277 1.93482 0.556796 1.93482H2.42206C3.02745 1.9482 3.56053 2.33692 3.75839 2.90923L7.29404 13.5719L7.01567 14.2122C6.70516 15.0128 6.79841 15.914 7.26622 16.6342C7.72955 17.3415 8.50903 17.7781 9.35422 17.8035H20.1839C20.4914 17.8035 20.7407 17.5542 20.7407 17.2467C20.7407 16.9392 20.4914 16.6899 20.1839 16.6899H9.35417C8.87687 16.678 8.43752 16.4269 8.18489 16.0217C7.93508 15.6215 7.88376 15.1285 8.0457 14.6854L8.26844 14.1843L19.989 12.9593C21.2764 12.8175 22.3354 11.8812 22.6338 10.6208L23.9701 5.02499C24.0303 4.86385 23.9983 4.68262 23.8865 4.5518ZM21.548 10.3703C21.3673 11.1816 20.6784 11.7801 19.8498 11.8458L8.26844 13.0429L5.67933 5.1921L22.7451 5.44265L21.548 10.3703Z" fill="#43B749"/>
</g>
<defs>
<clipPath id="clip0_536_2117">
<rect width="24" height="24" fill="white" transform="translate(0 0.5)"/>
</clipPath>
</defs>
</svg>
