<svg width="25" height="25" viewBox="0 0 25 25" fill="none" xmlns="http://www.w3.org/2000/svg">
<g clip-path="url(#clip0_475_4720)">
<path d="M8.15589 19.1677C6.77208 19.1677 5.65033 20.2895 5.65033 21.6732C5.65033 23.057 6.77213 24.1788 8.15589 24.1788C9.5397 24.1788 10.6614 23.057 10.6614 21.6732C10.6615 20.2895 9.5397 19.1677 8.15589 19.1677ZM8.15589 23.0652C7.38711 23.0652 6.76392 22.442 6.76392 21.6733C6.76392 20.9045 7.38711 20.2813 8.15589 20.2813C8.92466 20.2813 9.54785 20.9045 9.54785 21.6733C9.5479 22.442 8.92466 23.0652 8.15589 23.0652Z" fill="black"/>
<path d="M18.735 19.1677C17.3512 19.1677 16.2295 20.2895 16.2295 21.6732C16.2295 23.057 17.3513 24.1788 18.735 24.1788C20.1188 24.1788 21.2406 23.057 21.2406 21.6732C21.2406 20.2895 20.1189 19.1677 18.735 19.1677ZM18.735 23.0652C17.9663 23.0652 17.3431 22.442 17.3431 21.6733C17.3431 20.9045 17.9663 20.2813 18.735 20.2813C19.5038 20.2813 20.127 20.9045 20.127 21.6733C20.1271 22.442 19.5038 23.0652 18.735 23.0652Z" fill="black"/>
<path d="M24.3865 4.5518C24.2705 4.42514 24.1119 4.34585 23.9411 4.32906L5.81741 4.0785L5.3163 2.5473C4.96327 1.52371 4.00474 0.832685 2.92206 0.821228H1.0568C0.749277 0.821228 0.5 1.0705 0.5 1.37802C0.5 1.68554 0.749277 1.93482 1.0568 1.93482H2.92206C3.52745 1.9482 4.06053 2.33692 4.25839 2.90923L7.79404 13.5719L7.51567 14.2122C7.20516 15.0128 7.29841 15.914 7.76622 16.6342C8.22955 17.3415 9.00903 17.7781 9.85422 17.8035H20.6839C20.9914 17.8035 21.2407 17.5542 21.2407 17.2467C21.2407 16.9392 20.9914 16.6899 20.6839 16.6899H9.85417C9.37687 16.678 8.93752 16.4269 8.68489 16.0217C8.43508 15.6215 8.38376 15.1285 8.5457 14.6854L8.76844 14.1843L20.489 12.9593C21.7764 12.8175 22.8354 11.8812 23.1338 10.6208L24.4701 5.02499C24.5303 4.86385 24.4983 4.68262 24.3865 4.5518ZM22.048 10.3703C21.8673 11.1816 21.1784 11.7801 20.3498 11.8458L8.76844 13.0429L6.17933 5.1921L23.2451 5.44265L22.048 10.3703Z" fill="black"/>
</g>
<defs>
<clipPath id="clip0_475_4720">
<rect width="24" height="24" fill="white" transform="translate(0.5 0.5)"/>
</clipPath>
</defs>
</svg>
