<svg width="15" height="10" viewBox="0 0 15 10" fill="none" xmlns="http://www.w3.org/2000/svg">
<path fill-rule="evenodd" clip-rule="evenodd" d="M12.7135 0.645659C13.292 0.798795 13.7477 1.24759 13.9029 1.81638C14.1912 2.85452 14.1777 5.01896 14.1777 5.01896C14.1777 5.01896 14.1757 7.17147 13.8962 8.20895C13.7389 8.77707 13.2812 9.22521 12.7033 9.37768C11.6462 9.64948 7.41679 9.64484 7.41679 9.64484C7.41679 9.64484 3.19891 9.6402 2.13093 9.35514C1.55172 9.20201 1.09604 8.75321 0.940771 8.18508C0.663989 7.15755 0.666688 4.99377 0.666688 4.99377C0.666688 4.99377 0.669389 2.8406 0.948197 1.80246C1.10481 1.23434 1.57332 0.775592 2.14038 0.623783C3.19823 0.351322 7.42692 0.355962 7.42692 0.355962C7.42692 0.355962 11.6563 0.360603 12.7135 0.645659ZM6.07738 3.01059L6.07401 6.98813L9.59251 5.00267L6.07738 3.01059Z" fill="white"/>
</svg>
