<svg width="19" height="19" viewBox="0 0 19 19" fill="none" xmlns="http://www.w3.org/2000/svg">
<g clip-path="url(#clip0_475_4676)">
<path d="M14.7256 11.6503C14.3571 11.2666 13.9127 11.0615 13.4416 11.0615C12.9743 11.0615 12.526 11.2628 12.1423 11.6465L10.9418 12.8432C10.843 12.79 10.7443 12.7407 10.6493 12.6913C10.5125 12.6229 10.3834 12.5583 10.2732 12.4899C9.14868 11.7757 8.12674 10.8449 7.14659 9.64065C6.67171 9.04041 6.3526 8.53514 6.12086 8.02227C6.43238 7.73734 6.7211 7.44102 7.00223 7.15609C7.1086 7.04972 7.21498 6.93955 7.32135 6.83318C8.11914 6.03538 8.11914 5.00205 7.32135 4.20425L6.28421 3.16712C6.16644 3.04935 6.04488 2.92778 5.93091 2.80621C5.70296 2.57067 5.46363 2.32754 5.21669 2.09959C4.84818 1.73489 4.4075 1.54114 3.94402 1.54114C3.48054 1.54114 3.03225 1.73489 2.65235 2.09959C2.64855 2.10339 2.64855 2.10339 2.64475 2.10719L1.35308 3.41026C0.866807 3.89653 0.589478 4.48918 0.528694 5.1768C0.437517 6.28612 0.764233 7.31945 1.01497 7.99568C1.63041 9.65585 2.54977 11.1945 3.92122 12.8432C5.58519 14.8301 7.58728 16.3991 9.87429 17.5046C10.7481 17.9187 11.9144 18.4088 13.2174 18.4924C13.2972 18.4962 13.3808 18.5 13.4568 18.5C14.3343 18.5 15.0714 18.1847 15.6488 17.5578C15.6526 17.5502 15.6602 17.5464 15.664 17.5388C15.8616 17.2995 16.0895 17.0829 16.3288 16.8512C16.4922 16.6954 16.6593 16.5321 16.8227 16.3611C17.1988 15.9698 17.3964 15.5139 17.3964 15.0467C17.3964 14.5756 17.195 14.1235 16.8113 13.7436L14.7256 11.6503ZM16.0857 15.6507C16.0819 15.6507 16.0819 15.6545 16.0857 15.6507C15.9375 15.8103 15.7856 15.9546 15.6222 16.1142C15.3753 16.3497 15.1245 16.5967 14.889 16.874C14.5053 17.2843 14.0532 17.478 13.4606 17.478C13.4036 17.478 13.3428 17.478 13.2858 17.4742C12.1575 17.4021 11.109 16.9614 10.3226 16.5853C8.17233 15.5443 6.28421 14.0665 4.71522 12.1936C3.41975 10.6322 2.55357 9.18857 1.97992 7.63857C1.62661 6.69261 1.49744 5.9556 1.55443 5.26038C1.59242 4.8159 1.76338 4.44739 2.0787 4.13207L3.37416 2.8366C3.56031 2.66185 3.75786 2.56687 3.95161 2.56687C4.19095 2.56687 4.3847 2.71124 4.50627 2.83281C4.51007 2.8366 4.51387 2.8404 4.51767 2.8442C4.74941 3.06075 4.96975 3.28489 5.20149 3.52423C5.31926 3.6458 5.44083 3.76737 5.5624 3.89273L6.59953 4.92987C7.00223 5.33256 7.00223 5.70487 6.59953 6.10756C6.48936 6.21774 6.38299 6.32791 6.27282 6.43428C5.9537 6.76099 5.64978 7.06492 5.31926 7.36124C5.31166 7.36884 5.30407 7.37264 5.30027 7.38024C4.97355 7.70695 5.03434 8.02607 5.10272 8.24261C5.10652 8.25401 5.11032 8.26541 5.11412 8.27681C5.38385 8.93024 5.76375 9.54568 6.3412 10.2789L6.345 10.2827C7.39353 11.5744 8.49905 12.5811 9.71853 13.3523C9.87429 13.4511 10.0339 13.5309 10.1858 13.6068C10.3226 13.6752 10.4517 13.7398 10.5619 13.8082C10.5771 13.8158 10.5923 13.8272 10.6075 13.8348C10.7367 13.8994 10.8582 13.9298 10.9836 13.9298C11.2989 13.9298 11.4965 13.7322 11.5611 13.6676L12.8603 12.3684C12.9895 12.2392 13.1946 12.0834 13.434 12.0834C13.6695 12.0834 13.8633 12.2316 13.981 12.3608C13.9848 12.3646 13.9848 12.3646 13.9886 12.3684L16.0819 14.4616C16.4732 14.8491 16.4732 15.248 16.0857 15.6507Z" fill="#43B749"/>
<path d="M10.2276 4.78175C11.2229 4.94891 12.1271 5.41999 12.8489 6.1418C13.5707 6.86361 14.038 7.76778 14.209 8.76313C14.2507 9.01386 14.4673 9.18862 14.7142 9.18862C14.7446 9.18862 14.7712 9.18482 14.8016 9.18102C15.0827 9.13543 15.2689 8.8695 15.2233 8.58837C15.0181 7.38408 14.4483 6.28616 13.5783 5.41619C12.7083 4.54621 11.6104 3.97636 10.4061 3.77121C10.125 3.72562 9.86287 3.91177 9.81348 4.1891C9.7641 4.46643 9.94645 4.73616 10.2276 4.78175Z" fill="#43B749"/>
<path d="M18.4791 8.44018C18.1409 6.45709 17.2064 4.65255 15.7704 3.21652C14.3343 1.78049 12.5298 0.845932 10.5467 0.507819C10.2694 0.458432 10.0072 0.648383 9.95785 0.925712C9.91226 1.20684 10.0984 1.46897 10.3795 1.51836C12.1499 1.81848 13.7645 2.65807 15.0485 3.93834C16.3326 5.22241 17.1684 6.83699 17.4685 8.60734C17.5103 8.85807 17.7269 9.03283 17.9738 9.03283C18.0042 9.03283 18.0308 9.02903 18.0612 9.02523C18.3385 8.98344 18.5284 8.71751 18.4791 8.44018Z" fill="#43B749"/>
</g>
<defs>
<clipPath id="clip0_475_4676">
<rect width="18" height="18" fill="white" transform="translate(0.5 0.5)"/>
</clipPath>
</defs>
</svg>
