<svg width="64" height="64" viewBox="0 0 64 64" fill="none" xmlns="http://www.w3.org/2000/svg">
<rect width="64" height="64" rx="32" fill="#FFEDD7"/>
<path d="M43.875 40.7083C43.875 41.7581 43.458 42.765 42.7156 43.5073C41.9733 44.2496 40.9665 44.6667 39.9167 44.6667C38.8669 44.6667 37.86 44.2496 37.1177 43.5073C36.3754 42.765 35.9583 41.7581 35.9583 40.7083C35.9583 39.6585 36.3754 38.6517 37.1177 37.9094C37.86 37.167 38.8669 36.75 39.9167 36.75C40.9665 36.75 41.9733 37.167 42.7156 37.9094C43.458 38.6517 43.875 39.6585 43.875 40.7083ZM28.0417 40.7083C28.0417 41.7581 27.6246 42.765 26.8823 43.5073C26.14 44.2496 25.1331 44.6667 24.0833 44.6667C23.0335 44.6667 22.0267 44.2496 21.2844 43.5073C20.542 42.765 20.125 41.7581 20.125 40.7083C20.125 39.6585 20.542 38.6517 21.2844 37.9094C22.0267 37.167 23.0335 36.75 24.0833 36.75C25.1331 36.75 26.14 37.167 26.8823 37.9094C27.6246 38.6517 28.0417 39.6585 28.0417 40.7083Z" stroke="#F59421" stroke-width="1.5" stroke-linecap="round" stroke-linejoin="round"/>
<path d="M35.9583 40.7083H28.0416M43.875 40.7083H45.083C45.4314 40.7083 45.6055 40.7083 45.7512 40.6893C46.2754 40.624 46.7628 40.3858 47.1365 40.0125C47.5101 39.6391 47.7486 39.1519 47.8143 38.6278C47.8333 38.4805 47.8333 38.3063 47.8333 37.958V33.5833C47.8333 30.8537 46.749 28.236 44.8189 26.3059C42.8889 24.3759 40.2711 23.2916 37.5416 23.2916M36.75 37.5416V24.0833C36.75 21.8444 36.75 20.725 36.0533 20.0299C35.3598 19.3333 34.2404 19.3333 32 19.3333H20.9166C18.6778 19.3333 17.5584 19.3333 16.8633 20.0299C16.1666 20.7234 16.1666 21.8428 16.1666 24.0833V36.7499C16.1666 38.2303 16.1666 38.9698 16.4849 39.5208C16.6933 39.8818 16.9931 40.1816 17.3541 40.39C17.9051 40.7083 18.6445 40.7083 20.125 40.7083" stroke="#F59421" stroke-width="1.5" stroke-linecap="round" stroke-linejoin="round"/>
</svg>
