<svg width="36" height="36" viewBox="0 0 36 36" fill="none" xmlns="http://www.w3.org/2000/svg">
<path d="M10.8 26.616L18 19.416L25.2 26.616L26.616 25.2L19.416 18L26.616 10.8L25.2 9.384L18 16.584L10.8 9.384L9.384 10.8L16.584 18L9.384 25.2L10.8 26.616ZM18.006 36C15.518 36 13.178 35.528 10.986 34.584C8.79533 33.6387 6.88933 32.356 5.268 30.736C3.64667 29.116 2.36333 27.212 1.418 25.024C0.472667 22.836 0 20.4967 0 18.006C0 15.5153 0.472667 13.1753 1.418 10.986C2.362 8.79533 3.64267 6.88933 5.26 5.268C6.87733 3.64667 8.782 2.36333 10.974 1.418C13.166 0.472667 15.506 0 17.994 0C20.482 0 22.822 0.472667 25.014 1.418C27.2047 2.362 29.1107 3.64333 30.732 5.262C32.3533 6.88067 33.6367 8.78533 34.582 10.976C35.5273 13.1667 36 15.506 36 17.994C36 20.482 35.528 22.822 34.584 25.014C33.64 27.206 32.3573 29.112 30.736 30.732C29.1147 32.352 27.2107 33.6353 25.024 34.582C22.8373 35.5287 20.498 36.0013 18.006 36ZM18 34C22.4667 34 26.25 32.45 29.35 29.35C32.45 26.25 34 22.4667 34 18C34 13.5333 32.45 9.75 29.35 6.65C26.25 3.55 22.4667 2 18 2C13.5333 2 9.75 3.55 6.65 6.65C3.55 9.75 2 13.5333 2 18C2 22.4667 3.55 26.25 6.65 29.35C9.75 32.45 13.5333 34 18 34Z" fill="#B2B2B2"/>
</svg>
