<svg width="64" height="64" viewBox="0 0 64 64" fill="none" xmlns="http://www.w3.org/2000/svg">
<rect width="64" height="64" rx="32" fill="#FFEDD7"/>
<path d="M32 47.4376C39.159 44.97 44.2621 39.2335 45.0625 31.9296C45.2841 28.759 45.2659 25.5765 45.0063 22.4083C44.9721 21.9089 44.753 21.4402 44.3917 21.0938C44.0303 20.7474 43.5528 20.5482 43.0524 20.5352C39.8137 20.4354 36.0493 19.8955 33.1408 17.0305C32.837 16.7305 32.4273 16.5623 32.0004 16.5623C31.5734 16.5623 31.1637 16.7305 30.86 17.0305C27.9506 19.8955 24.1862 20.4354 20.9483 20.5352C20.4479 20.5482 19.9704 20.7474 19.6091 21.0938C19.2477 21.4402 19.0286 21.9089 18.9945 22.4083C18.7348 25.576 18.7157 28.759 18.9375 31.9296C19.7386 39.2335 24.8409 44.97 32 47.4376Z" stroke="#F59421" stroke-width="1.5" stroke-linecap="round" stroke-linejoin="round"/>
<path d="M27.0822 31.9857L31.426 36.3288L40.0845 27.6711" stroke="#F59421" stroke-width="1.5" stroke-linecap="round" stroke-linejoin="round"/>
</svg>
