<svg width="33" height="32" viewBox="0 0 33 32" fill="none" xmlns="http://www.w3.org/2000/svg">
<path opacity="0.2" d="M25.5 19.1125L20.9 23.7125C20.7746 23.8297 20.6227 23.9148 20.4573 23.9606C20.2918 24.0063 20.1178 24.0112 19.95 23.975L12.7 22.1625C12.5676 22.1256 12.4442 22.0617 12.3375 21.975L5.5 16.6375L9.575 8.97499L15.9875 7.09999C16.2154 7.03465 16.459 7.05237 16.675 7.14999L21 9.11249H18.4125C18.2826 9.11204 18.154 9.1372 18.0339 9.18653C17.9138 9.23586 17.8045 9.3084 17.7125 9.39999L12.8125 14.2875C12.7125 14.3902 12.6354 14.513 12.5863 14.6477C12.5373 14.7825 12.5174 14.9261 12.5281 15.0691C12.5387 15.2121 12.5796 15.3512 12.648 15.4772C12.7164 15.6032 12.8109 15.7132 12.925 15.8L13.6 16.3125C14.2932 16.8299 15.135 17.1094 16 17.1094C16.865 17.1094 17.7068 16.8299 18.4 16.3125L20 15.1125L25.5 19.1125Z" fill="#89E58E"/>
<path d="M30.5875 15.225L27.5 16.7625L23.5 9.1125L26.625 7.55C26.8572 7.43162 27.1269 7.40986 27.3751 7.48948C27.6233 7.56909 27.83 7.74362 27.95 7.975L31.025 13.8625C31.0874 13.9804 31.1255 14.1095 31.1372 14.2423C31.1489 14.3751 31.134 14.5089 31.0932 14.6359C31.0525 14.7628 30.9867 14.8804 30.8999 14.9815C30.813 15.0827 30.7068 15.1655 30.5875 15.225V15.225Z" stroke="#89E58E" stroke-width="2" stroke-linecap="round" stroke-linejoin="round"/>
<path d="M5.49979 16.6375L2.41229 15.0875C2.29341 15.0292 2.18746 14.9477 2.10073 14.8476C2.01401 14.7476 1.94829 14.6311 1.90747 14.5052C1.86666 14.3793 1.85159 14.2464 1.86315 14.1145C1.87471 13.9826 1.91268 13.8544 1.97479 13.7375L5.04979 7.84999C5.17008 7.61878 5.37588 7.44367 5.62337 7.36195C5.87086 7.28023 6.14047 7.29837 6.37479 7.41249L9.49979 8.97499L5.49979 16.6375Z" stroke="#89E58E" stroke-width="2" stroke-linecap="round" stroke-linejoin="round"/>
<path d="M27.5 16.7625L25.5 19.1125L20.9 23.7125C20.7746 23.8297 20.6227 23.9148 20.4573 23.9606C20.2918 24.0063 20.1178 24.0112 19.95 23.975L12.7 22.1625C12.5676 22.1256 12.4442 22.0618 12.3375 21.975L5.5 16.6375" stroke="#89E58E" stroke-width="2" stroke-linecap="round" stroke-linejoin="round"/>
<path d="M25.5001 19.1125L20.0001 15.1125L18.4001 16.3125C17.7069 16.8299 16.8651 17.1094 16.0001 17.1094C15.1351 17.1094 14.2933 16.8299 13.6001 16.3125L12.9251 15.8C12.811 15.7132 12.7166 15.6032 12.6481 15.4772C12.5797 15.3512 12.5388 15.2121 12.5282 15.0691C12.5175 14.9261 12.5374 14.7825 12.5864 14.6477C12.6355 14.513 12.7126 14.3902 12.8126 14.2875L17.7126 9.39999C17.8047 9.3084 17.9139 9.23586 18.034 9.18653C18.1541 9.1372 18.2828 9.11204 18.4126 9.11249H23.5001" stroke="#89E58E" stroke-width="2" stroke-linecap="round" stroke-linejoin="round"/>
<path d="M9.57422 8.97499L15.9867 7.09999C16.2146 7.03465 16.4582 7.05237 16.6742 7.14999L20.9992 9.11249" stroke="#89E58E" stroke-width="2" stroke-linecap="round" stroke-linejoin="round"/>
<path d="M14.5 26.6125L10.7375 25.6625C10.5842 25.6279 10.4422 25.5547 10.325 25.45L7.5 23" stroke="#89E58E" stroke-width="2" stroke-linecap="round" stroke-linejoin="round"/>
</svg>
