<svg width="64" height="64" viewBox="0 0 64 64" fill="none" xmlns="http://www.w3.org/2000/svg">
<rect width="64" height="64" rx="32" fill="#FFEDD7"/>
<path d="M16.1666 38.3334V43.0834M19.3333 27.2501V24.0834C19.3333 23.2436 19.6669 22.4381 20.2608 21.8442C20.8547 21.2504 21.6601 20.9167 22.5 20.9167H41.5C42.3398 20.9167 43.1453 21.2504 43.7391 21.8442C44.333 22.4381 44.6666 23.2436 44.6666 24.0834V27.2501" stroke="#F59421" stroke-width="1.5" stroke-linecap="round" stroke-linejoin="round"/>
<path d="M47.8333 38.3333V43.0833M44.6666 27.25C43.8268 27.25 43.0213 27.5836 42.4275 28.1775C41.8336 28.7714 41.5 29.5768 41.5 30.4167V33.5833H22.5V30.4167C22.5 29.5768 22.1663 28.7714 21.5725 28.1775C20.9786 27.5836 20.1731 27.25 19.3333 27.25C18.4934 27.25 17.688 27.5836 17.0941 28.1775C16.5003 28.7714 16.1666 29.5768 16.1666 30.4167V39.9167H47.8333V30.4167C47.8333 29.5768 47.4997 28.7714 46.9058 28.1775C46.3119 27.5836 45.5065 27.25 44.6666 27.25Z" stroke="#F59421" stroke-width="1.5" stroke-linecap="round" stroke-linejoin="round"/>
</svg>
