<svg width="20" height="20" viewBox="0 0 20 20" fill="none" xmlns="http://www.w3.org/2000/svg">
<path d="M10 13.75C12.0711 13.75 13.75 12.0711 13.75 10C13.75 7.92893 12.0711 6.25 10 6.25C7.92893 6.25 6.25 7.92893 6.25 10C6.25 12.0711 7.92893 13.75 10 13.75Z" stroke="#5F6C72" stroke-width="1.5" stroke-linecap="round" stroke-linejoin="round"/>
<path d="M14.3516 5.08594C14.5495 5.26823 14.737 5.45573 14.9141 5.64844L17.0469 5.95313C17.3944 6.55665 17.6622 7.20265 17.8438 7.875L16.5469 9.60156C16.5469 9.60156 16.5703 10.1328 16.5469 10.3984L17.8438 12.125C17.6631 12.7976 17.3952 13.4437 17.0469 14.0469L14.9141 14.3516C14.9141 14.3516 14.5469 14.7344 14.3516 14.9141L14.0469 17.0469C13.4434 17.3944 12.7974 17.6622 12.125 17.8438L10.3984 16.5469C10.1333 16.5703 9.86667 16.5703 9.60156 16.5469L7.875 17.8438C7.20236 17.6631 6.55625 17.3952 5.95313 17.0469L5.64844 14.9141C5.45573 14.7318 5.26823 14.5443 5.08594 14.3516L2.95312 14.0469C2.60561 13.4434 2.33776 12.7974 2.15625 12.125L3.45313 10.3984C3.45313 10.3984 3.42969 9.86719 3.45313 9.60156L2.15625 7.875C2.33692 7.20236 2.60481 6.55625 2.95312 5.95313L5.08594 5.64844C5.26823 5.45573 5.45573 5.26823 5.64844 5.08594L5.95313 2.95312C6.55665 2.60561 7.20265 2.33776 7.875 2.15625L9.60156 3.45313C9.86667 3.42968 10.1333 3.42968 10.3984 3.45313L12.125 2.15625C12.7976 2.33692 13.4437 2.60481 14.0469 2.95312L14.3516 5.08594Z" stroke="#5F6C72" stroke-width="1.5" stroke-linecap="round" stroke-linejoin="round"/>
</svg>
