<svg width="62" height="24" viewBox="0 0 62 24" fill="none" xmlns="http://www.w3.org/2000/svg">
<path d="M28.9512 11.6725V18.7485H26.6904V1.27484H32.6839C34.2029 1.27484 35.4982 1.77777 36.5579 2.78361C37.6412 3.78946 38.1829 5.01753 38.1829 6.46782C38.1829 7.9532 37.6412 9.18127 36.5579 10.1754C35.51 11.1696 34.2147 11.6608 32.6839 11.6608H28.9512V11.6725ZM28.9512 3.42689V9.52045H32.731C33.6259 9.52045 34.3795 9.21635 34.9683 8.61986C35.5688 8.02337 35.875 7.29823 35.875 6.47951C35.875 5.6725 35.5688 4.95905 34.9683 4.36256C34.3795 3.74268 33.6377 3.43858 32.731 3.43858H28.9512V3.42689Z" fill="white"/>
<path d="M44.0945 6.39761C45.7665 6.39761 47.0853 6.84206 48.0509 7.73094C49.0165 8.61983 49.4992 9.83621 49.4992 11.3801V18.7485H47.3444V17.0877H47.2502C46.32 18.4561 45.0718 19.1344 43.5175 19.1344C42.1869 19.1344 41.08 18.7485 40.1851 17.9649C39.2902 17.1812 38.8428 16.2105 38.8428 15.0409C38.8428 13.8011 39.3138 12.8187 40.2558 12.0935C41.1978 11.3567 42.4577 10.9941 44.0238 10.9941C45.3662 10.9941 46.473 11.2397 47.3326 11.7309V11.2163C47.3326 10.4327 47.0265 9.77773 46.4024 9.22802C45.7783 8.67831 45.0483 8.40931 44.2122 8.40931C42.9523 8.40931 41.9514 8.93562 41.2213 9.99995L39.2313 8.76018C40.3264 7.18124 41.9514 6.39761 44.0945 6.39761ZM41.1742 15.076C41.1742 15.6608 41.4215 16.152 41.9278 16.538C42.4224 16.9239 43.0112 17.1227 43.6823 17.1227C44.6361 17.1227 45.4839 16.7719 46.2258 16.0701C46.9676 15.3684 47.3444 14.5497 47.3444 13.6023C46.6379 13.0526 45.6606 12.7719 44.4006 12.7719C43.4822 12.7719 42.7168 12.9941 42.1045 13.4268C41.4804 13.883 41.1742 14.4327 41.1742 15.076Z" fill="white"/>
<path d="M61.7919 6.78363L54.2559 24H51.9244L54.7269 17.9766L49.7578 6.78363H52.2188L55.7984 15.3684H55.8455L59.3309 6.78363H61.7919Z" fill="white"/>
<path d="M19.9579 10.2456C19.9579 9.5134 19.892 8.81281 19.7695 8.13913H10.293V11.9988L15.7507 11.9999C15.5293 13.2842 14.817 14.3789 13.7254 15.1087V17.6128H16.9741C18.8711 15.8689 19.9579 13.2912 19.9579 10.2456Z" fill="#4285F4"/>
<path d="M13.7265 15.1088C12.8222 15.7146 11.6576 16.069 10.2953 16.069C7.66354 16.069 5.43099 14.3076 4.63146 11.9333H1.28027V14.5158C2.94056 17.7883 6.35297 20.0339 10.2953 20.0339C13.02 20.0339 15.3091 19.1438 16.9753 17.6117L13.7265 15.1088Z" fill="#34A853"/>
<path d="M4.31633 10.0176C4.31633 9.3509 4.42819 8.70646 4.6319 8.10061V5.51816H1.28072C0.594228 6.87137 0.208008 8.39886 0.208008 10.0176C0.208008 11.6363 0.595406 13.1638 1.28072 14.517L4.6319 11.9345C4.42819 11.3287 4.31633 10.6842 4.31633 10.0176Z" fill="#FABB05"/>
<path d="M10.2953 3.96494C11.7825 3.96494 13.1142 4.47371 14.1657 5.46786L17.0447 2.61055C15.2961 0.993013 13.0165 3.05176e-05 10.2953 3.05176e-05C6.35415 3.05176e-05 2.94056 2.24564 1.28027 5.51815L4.63146 8.10061C5.43099 5.72634 7.66354 3.96494 10.2953 3.96494Z" fill="#E94235"/>
</svg>
