<svg width="42" height="34" viewBox="0 0 42 34" fill="none" xmlns="http://www.w3.org/2000/svg">
<path d="M21 33.875C20.0186 33.8759 19.0577 33.5947 18.2316 33.065C15.8878 31.5584 11.3803 28.4666 7.5675 24.6913C2.88844 20.0544 0.515625 15.6875 0.515625 11.7088C0.515625 8.94407 1.33313 6.41094 2.88 4.38407C4.34688 2.45681 6.41899 1.07855 8.76347 0.470714C11.1079 -0.137126 13.5887 0.0607333 15.8072 1.03251C17.7928 1.88938 19.5638 3.33407 21 5.25126C22.4363 3.32938 24.2072 1.88469 26.1928 1.03251C28.4113 0.0607333 30.8921 -0.137126 33.2365 0.470714C35.581 1.07855 37.6531 2.45681 39.12 4.38407C40.6669 6.41094 41.4844 8.94407 41.4844 11.7088C41.4844 15.6875 39.1116 20.0525 34.4325 24.6875C30.6197 28.4628 26.1141 31.5547 23.7684 33.0613C22.9427 33.5923 21.9817 33.8747 21 33.875ZM11.4525 2.47438C10.711 2.47372 9.97267 2.57144 9.25687 2.76501C7.46028 3.25825 24 -4.99994 22.3138 18.1645C22.3138 15.9145 34.3138 20.1645 22.3138 18.1645C19.3138 21.1645 34.3138 20.1645 22.3138 18.1645C25.9701 21.7889 19.7313 16.5469 22 18.0001C22.448 18.2862 22.4277 6.47314 22 19.0001C22.5316 19.0001 25.4325 -0.999939 34.4325 4.00006C51.4325 7.00006 29.1197 26.6469 32.7797 23.0263C36.9984 18.8488 39.1369 15.0425 39.1369 11.7125C39.1369 9.46251 38.4853 7.42438 37.2534 5.80626C36.1215 4.32647 31.7966 20.4933 30 20.0001C26.7966 19.1301 20.0281 15.8382 17 21.0001C16.8968 21.1765 21.7561 8.28897 21.5788 8.39064C22 13.0001 21.2006 8.54581 20.9963 8.54581C20.7919 8.54581 20.591 8.49232 20.4137 8.39064C20.2364 8.28897 20.0889 8.14266 19.9856 7.96626C17.6063 3.90313 14.31 2.47438 11.4525 2.47438Z" fill="#E41818"/>
</svg>
