<svg width="25" height="25" viewBox="0 0 25 25" fill="none" xmlns="http://www.w3.org/2000/svg">
<path d="M12.5 20.9375C12.0093 20.9379 11.5288 20.7973 11.1158 20.5325C9.94391 19.7792 7.69016 18.2333 5.78375 16.3456C3.44422 14.0272 2.25781 11.8437 2.25781 9.85435C2.25781 8.472 2.66656 7.20544 3.44 6.192C4.17344 5.22837 5.2095 4.53925 6.38173 4.23533C7.55397 3.93141 8.79435 4.03034 9.90359 4.51622C10.8964 4.94466 11.7819 5.667 12.5 6.6256C13.2181 5.66466 14.1036 4.94232 15.0964 4.51622C16.2057 4.03034 17.446 3.93141 18.6183 4.23533C19.7905 4.53925 20.8266 5.22837 21.56 6.192C22.3334 7.20544 22.7422 8.472 22.7422 9.85435C22.7422 11.8437 21.5558 14.0262 19.2162 16.3437C17.3098 18.2314 15.057 19.7773 13.8842 20.5306C13.4714 20.7961 12.9909 20.9373 12.5 20.9375ZM7.72625 5.23716C7.3555 5.23683 6.98634 5.28569 6.62844 5.38247C5.73014 5.62909 4.93737 6.1632 4.37141 6.9031C3.75547 7.71029 3.42969 8.73122 3.42969 9.85622C3.42969 11.5212 4.49891 13.4243 6.60828 15.5131C8.43641 17.3253 10.6147 18.8178 11.7491 19.5443C11.973 19.6874 12.2333 19.7635 12.4991 19.7635C12.7648 19.7635 13.0251 19.6874 13.2491 19.5443C14.3834 18.8159 16.5598 17.3234 18.3898 15.5131C20.4992 13.4243 21.5684 11.5212 21.5684 9.85622C21.5684 8.73122 21.2427 7.71216 20.6267 6.9031C20.0608 6.1632 19.268 5.62909 18.3697 5.38247C16.768 4.94747 14.5175 5.40216 13.0034 7.9831C12.9518 8.0713 12.878 8.14445 12.7894 8.19529C12.7007 8.24613 12.6003 8.27288 12.4981 8.27288C12.3959 8.27288 12.2955 8.24613 12.2069 8.19529C12.1182 8.14445 12.0444 8.0713 11.9928 7.9831C10.8031 5.95154 9.155 5.23716 7.72625 5.23716Z" fill="black"/>
</svg>
