<svg width="20" height="20" viewBox="0 0 20 20" fill="none" xmlns="http://www.w3.org/2000/svg">
<path d="M10 16.875C10 16.875 2.1875 12.5 2.1875 7.18751C2.1875 6.24836 2.51289 5.33821 3.1083 4.61193C3.70371 3.88564 4.53236 3.38808 5.45328 3.2039C6.37419 3.01971 7.33047 3.16029 8.15943 3.6017C8.98838 4.04311 9.63879 4.7581 10 5.62501C10.3612 4.7581 11.0116 4.04311 11.8406 3.6017C12.6695 3.16029 13.6258 3.01971 14.5467 3.2039C15.4676 3.38808 16.2963 3.88564 16.8917 4.61193C17.4871 5.33821 17.8125 6.24836 17.8125 7.18751C17.8125 12.5 10 16.875 10 16.875Z" stroke="#5F6C72" stroke-width="1.5" stroke-linecap="round" stroke-linejoin="round"/>
</svg>
