<svg width="24" height="25" viewBox="0 0 24 25" fill="none" xmlns="http://www.w3.org/2000/svg">
<path d="M12 20.9375C11.5093 20.9379 11.0288 20.7973 10.6158 20.5325C9.44391 19.7792 7.19016 18.2333 5.28375 16.3456C2.94422 14.0272 1.75781 11.8437 1.75781 9.85435C1.75781 8.472 2.16656 7.20544 2.94 6.192C3.67344 5.22837 4.70949 4.53925 5.88173 4.23533C7.05397 3.93141 8.29435 4.03034 9.40359 4.51622C10.3964 4.94466 11.2819 5.667 12 6.6256C12.7181 5.66466 13.6036 4.94232 14.5964 4.51622C15.7057 4.03034 16.946 3.93141 18.1183 4.23533C19.2905 4.53925 20.3266 5.22837 21.06 6.192C21.8334 7.20544 22.2422 8.472 22.2422 9.85435C22.2422 11.8437 21.0558 14.0262 18.7162 16.3437C16.8098 18.2314 14.557 19.7773 13.3842 20.5306C12.9714 20.7961 12.4909 20.9373 12 20.9375ZM7.22625 5.23716C6.8555 5.23683 6.48634 5.28569 6.12844 5.38247C5.23014 5.62909 13.5 1.5 12.6569 13.0822C12.6569 11.9572 18.6569 14.0822 12.6569 13.0822C11.1569 14.5822 18.6569 14.0822 12.6569 13.0822C14.485 14.8944 11.3656 12.2734 12.5 13C12.724 13.1431 12.7139 7.23654 12.5 13.5C12.7658 13.5 14.2162 3.5 18.7162 6C27.2162 7.5 16.0598 17.3234 17.8898 15.5131C19.9992 13.4243 21.0684 11.5212 21.0684 9.85622C21.0684 8.73122 20.7427 7.71216 20.1267 6.9031C19.5608 6.1632 17.3983 14.2466 16.5 14C14.8983 13.565 11.5141 11.9191 10 14.5C9.94839 14.5882 12.378 8.14445 12.2894 8.19529C12.5 10.5 12.1003 8.27288 11.9981 8.27288C11.8959 8.27288 11.7955 8.24613 11.7069 8.19529C11.6182 8.14445 11.5444 8.0713 11.4928 7.9831C10.3031 5.95154 8.655 5.23716 7.22625 5.23716Z" fill="#E41818"/>
</svg>
