<svg width="36" height="36" viewBox="0 0 36 36" fill="none" xmlns="http://www.w3.org/2000/svg">
<rect width="36" height="36" rx="8" fill="white"/>
<path d="M17 16.5H17.5C17.6326 16.5 17.7598 16.5527 17.8536 16.6464C17.9473 16.7402 18 16.8674 18 17V21C18 21.1326 18.0527 21.2598 18.1464 21.3536C18.2402 21.4473 18.3674 21.5 18.5 21.5H19M18 14.5H18.01" stroke="#292D32" stroke-width="1.5" stroke-linecap="round" stroke-linejoin="round"/>
<path d="M19.39 25.879C21.4797 25.5103 23.3375 24.3266 24.5545 22.5883C25.7715 20.8499 26.2481 18.6993 25.8795 16.6095C25.5108 14.5197 24.3271 12.662 22.5887 11.445C20.8504 10.2279 18.6997 9.75134 16.61 10.12C14.5203 10.4886 12.6627 11.6723 11.4458 13.4106C10.2289 15.1488 9.75232 17.2993 10.121 19.389C10.4896 21.4786 11.6733 23.3362 13.4116 24.5532C15.1498 25.7701 17.3003 26.2476 19.39 25.879Z" stroke="#292D32" stroke-width="1.5"/>
</svg>
