<svg width="12" height="12" viewBox="0 0 12 12" fill="none" xmlns="http://www.w3.org/2000/svg">
<path d="M8.84397 3.84028C9.20774 3.84028 9.50264 3.54539 9.50264 3.18162C9.50264 2.81784 9.20774 2.52295 8.84397 2.52295C8.4802 2.52295 8.1853 2.81784 8.1853 3.18162C8.1853 3.54539 8.4802 3.84028 8.84397 3.84028Z" fill="white"/>
<path fill-rule="evenodd" clip-rule="evenodd" d="M3.25555 6.0003C3.25555 7.51387 4.48644 8.74475 6 8.74475C7.51356 8.74475 8.74444 7.51387 8.74444 6.0003C8.74444 4.48674 7.51356 3.25586 6 3.25586C4.48644 3.25586 3.25555 4.48674 3.25555 6.0003ZM4.62782 5.99976C4.62782 5.24297 5.24326 4.62753 6.00005 4.62753C6.75683 4.62753 7.37227 5.24297 7.37227 5.99976C7.37227 6.75654 6.75683 7.37198 6.00005 7.37198C5.24326 7.37198 4.62782 6.75654 4.62782 5.99976Z" fill="white"/>
<path fill-rule="evenodd" clip-rule="evenodd" d="M3.25549 11.4885H8.74438C10.155 11.4885 11.4888 10.1547 11.4888 8.74408V3.25519C11.4888 1.84454 10.155 0.510742 8.74438 0.510742H3.25549C1.84485 0.510742 0.511047 1.84454 0.511047 3.25519V8.74408C0.511047 10.1547 1.84485 11.4885 3.25549 11.4885ZM1.8834 3.2554C1.8834 2.61389 2.6141 1.88318 3.25562 1.88318H8.74451C9.38602 1.88318 10.1167 2.61389 10.1167 3.2554V8.74429C10.1167 9.3858 9.38602 10.1165 8.74451 10.1165H3.25562C2.60175 10.1165 1.8834 9.39815 1.8834 8.74429V3.2554Z" fill="white"/>
</svg>
