<svg width="12" height="12" viewBox="0 0 12 12" fill="none" xmlns="http://www.w3.org/2000/svg">
<path d="M1.93611 3.36074C2.72311 3.36074 3.36111 2.72275 3.36111 1.93574C3.36111 1.14874 2.72311 0.510742 1.93611 0.510742C1.1491 0.510742 0.511108 1.14874 0.511108 1.93574C0.511108 2.72275 1.1491 3.36074 1.93611 3.36074Z" fill="white"/>
<path d="M3.12361 4.31104H0.748608C0.617508 4.31104 0.511108 4.41744 0.511108 4.54854V11.6735C0.511108 11.8046 0.617508 11.911 0.748608 11.911H3.12361C3.25471 11.911 3.36111 11.8046 3.36111 11.6735V4.54854C3.36111 4.41744 3.25471 4.31104 3.12361 4.31104Z" fill="white"/>
<path d="M10.1996 3.98369C9.18454 3.63599 7.91486 3.94142 7.15344 4.48909C7.12731 4.38697 7.03421 4.31097 6.92354 4.31097H4.54854C4.41744 4.31097 4.31104 4.41737 4.31104 4.54847V11.6735C4.31104 11.8046 4.41744 11.911 4.54854 11.911H6.92354C7.05464 11.911 7.16104 11.8046 7.16104 11.6735V6.55297C7.54484 6.22237 8.03931 6.11692 8.44401 6.28887C8.83636 6.45464 9.06104 6.85934 9.06104 7.39847V11.6735C9.06104 11.8046 9.16744 11.911 9.29854 11.911H11.6735C11.8046 11.911 11.911 11.8046 11.911 11.6735V6.92014C11.884 4.96837 10.9658 4.24589 10.1996 3.98369Z" fill="white"/>
</svg>
