<svg width="20" height="20" viewBox="0 0 20 20" fill="none" xmlns="http://www.w3.org/2000/svg">
<rect width="20" height="20" rx="10" fill="#0A66C2"/>
<path d="M14.688 4.5H5.31201C5.09665 4.5 4.89012 4.58555 4.73783 4.73783C4.58555 4.89012 4.5 5.09665 4.5 5.31201V14.688C4.5 14.9033 4.58555 15.1099 4.73783 15.2622C4.89012 15.4144 5.09665 15.5 5.31201 15.5H14.688C14.9033 15.5 15.1099 15.4144 15.2622 15.2622C15.4144 15.1099 15.5 14.9033 15.5 14.688V5.31201C15.5 5.09665 15.4144 4.89012 15.2622 4.73783C15.1099 4.58555 14.9033 4.5 14.688 4.5ZM7.77861 13.8706H6.12479V8.61736H7.77861V13.8706ZM6.95056 7.88938C6.76296 7.88832 6.57988 7.83171 6.42442 7.72671C6.26896 7.6217 6.14809 7.47299 6.07707 7.29936C6.00604 7.12572 5.98805 6.93494 6.02535 6.75108C6.06265 6.56723 6.15358 6.39854 6.28665 6.26632C6.41973 6.13409 6.589 6.04425 6.77309 6.00813C6.95718 5.97201 7.14784 5.99123 7.32102 6.06337C7.4942 6.13551 7.64212 6.25733 7.74613 6.41346C7.85014 6.56958 7.90556 6.75303 7.90542 6.94063C7.90719 7.06622 7.88365 7.19089 7.83621 7.3072C7.78878 7.42351 7.71841 7.52908 7.6293 7.61761C7.5402 7.70615 7.43418 7.77584 7.31757 7.82253C7.20096 7.86922 7.07614 7.89195 6.95056 7.88938ZM13.8744 13.8752H12.2214V11.0053C12.2214 10.1589 11.8616 9.89764 11.3972 9.89764C10.9067 9.89764 10.4255 10.2674 10.4255 11.0267V13.8752H8.77167V8.62118H10.3621V9.34917H10.3835C10.5431 9.02604 11.1023 8.47375 11.9556 8.47375C12.8783 8.47375 13.8752 9.02146 13.8752 10.6256L13.8744 13.8752Z" fill="white"/>
</svg>
