<svg width="107" height="20" viewBox="0 0 107 20" fill="none" xmlns="http://www.w3.org/2000/svg">
<g clip-path="url(#clip0_101_33286)">
<path d="M60.0549 14.5238H62.3436V6.16921H60.0549V14.5238ZM60.0549 4.86637H62.3436V2.87952H60.0549V4.86637Z" fill="black"/>
<path d="M63.8186 17.2598H66.1073V13.5792H66.1407C66.6286 14.2958 67.4198 14.7681 68.6312 14.7681C70.8526 14.7681 72.3673 13.0581 72.3673 10.3547C72.3673 7.74893 70.9032 5.94122 68.6145 5.94122C67.4365 5.94122 66.6286 6.47869 66.0735 7.21152H66.0229V6.16922H63.8186V17.2598ZM68.1433 12.9278C66.7802 12.9278 66.0568 11.9344 66.0568 10.4198C66.0568 8.92152 66.6286 7.73269 68.0593 7.73269C69.4729 7.73269 70.0447 8.8401 70.0447 10.4198C70.0447 11.9995 69.3046 12.9278 68.1433 12.9278Z" fill="black"/>
<path d="M76.9326 14.7681C79.0868 14.7681 80.5676 13.7584 80.5676 12.0809C80.5676 10.1267 78.969 9.73581 77.5215 9.44269C76.293 9.19839 75.1489 9.13322 75.1489 8.41669C75.1489 7.8141 75.7379 7.48839 76.6297 7.48839C77.606 7.48839 78.195 7.8141 78.2956 8.70981H80.3654C80.1975 7.03239 78.9351 5.94122 76.6636 5.94122C74.6944 5.94122 73.1463 6.80439 73.1463 8.6121C73.1463 10.4361 74.661 10.8432 76.2091 11.1364C77.3871 11.3644 78.4806 11.4458 78.4806 12.2438C78.4806 12.8301 77.9088 13.2047 76.8992 13.2047C75.8724 13.2047 75.1656 12.7812 75.0144 11.8204H72.894C73.0285 13.5955 74.4254 14.7681 76.9326 14.7681Z" fill="black"/>
<path d="M89.2566 14.5238V6.16919H86.9679V10.9898C86.9679 12.0972 86.3116 12.8789 85.2348 12.8789C84.2585 12.8789 83.8045 12.3415 83.8045 11.3644V6.16919H81.5325V11.7389C81.5325 13.5629 82.6093 14.7518 84.528 14.7518C85.7398 14.7518 86.4127 14.3121 87.0017 13.5467H87.0523V14.5238H89.2566Z" fill="black"/>
<path d="M90.7371 14.5238H93.0258V9.67069C93.0258 8.56322 93.6486 7.84669 94.5743 7.84669C95.4156 7.84669 95.9035 8.33522 95.9035 9.27981V14.5238H98.1922V9.67069C98.1922 8.56322 98.7812 7.84669 99.7403 7.84669C100.582 7.84669 101.07 8.33522 101.07 9.27981V14.5238H103.359V8.90522C103.359 7.08122 102.332 5.94122 100.514 5.94122C99.4207 5.94122 98.5117 6.49493 97.9227 7.40693H97.8894C97.4687 6.52752 96.5936 5.94122 95.4995 5.94122C94.3049 5.94122 93.4636 6.52752 92.9924 7.29293H92.9419V6.16922H90.7371V14.5238Z" fill="black"/>
<path d="M0.404541 14.5238H2.69319V2.87952H0.404541V14.5238Z" fill="black"/>
<path d="M8.28931 14.7681C10.965 14.7681 12.7993 12.8464 12.7993 10.3547C12.7993 7.86293 10.965 5.94122 8.28931 5.94122C5.61357 5.94122 3.7793 7.86293 3.7793 10.3547C3.7793 12.8464 5.61357 14.7681 8.28931 14.7681ZM8.28931 13.0744C6.87573 13.0744 6.1016 11.9832 6.1016 10.3547C6.1016 8.7261 6.87573 7.61869 8.28931 7.61869C9.68605 7.61869 10.477 8.7261 10.477 10.3547C10.477 11.9832 9.68605 13.0744 8.28931 13.0744Z" fill="black"/>
<path d="M17.6663 17.3738C18.9452 17.3738 20.0559 17.0807 20.7795 16.4292C21.419 15.8592 21.8061 15.0612 21.8061 13.8887V6.16922H19.6016V7.04869H19.5679C19.0462 6.34839 18.2553 5.94122 17.1783 5.94122C14.9906 5.94122 13.4424 7.53722 13.4424 10.0289C13.4424 12.5532 15.3272 14.0189 17.2456 14.0189C18.3394 14.0189 18.9957 13.5955 19.5005 13.0418H19.5511V13.9538C19.5511 15.0938 18.9284 15.6964 17.6326 15.6964C16.5724 15.6964 16.0844 15.2892 15.8993 14.7681H13.6275C13.8631 16.3967 15.3103 17.3738 17.6663 17.3738ZM17.6326 12.2438C16.4546 12.2438 15.6805 11.4132 15.6805 9.99639C15.6805 8.59581 16.4546 7.71639 17.6158 7.71639C18.9957 7.71639 19.6689 8.75869 19.6689 9.9801C19.6689 11.2178 19.0799 12.2438 17.6326 12.2438Z" fill="black"/>
<path d="M27.3689 14.7681C30.0446 14.7681 31.8789 12.8464 31.8789 10.3547C31.8789 7.86293 30.0446 5.94122 27.3689 5.94122C24.6932 5.94122 22.8589 7.86293 22.8589 10.3547C22.8589 12.8464 24.6932 14.7681 27.3689 14.7681ZM27.3689 13.0744C25.9553 13.0744 25.1812 11.9832 25.1812 10.3547C25.1812 8.7261 25.9553 7.61869 27.3689 7.61869C28.7656 7.61869 29.5566 8.7261 29.5566 10.3547C29.5566 11.9832 28.7656 13.0744 27.3689 13.0744Z" fill="black"/>
<path d="M104.19 4.79759C104.19 4.42282 104.504 4.11902 104.891 4.11902H106.294C106.681 4.11902 106.995 4.42282 106.995 4.79759C106.995 5.17235 106.681 5.47616 106.294 5.47616H104.891C104.504 5.47616 104.19 5.17235 104.19 4.79759Z" fill="black"/>
<path fill-rule="evenodd" clip-rule="evenodd" d="M45.7587 0.5C51.18 0.5 55.5753 4.7533 55.5753 10C55.5753 15.2467 51.18 19.5 45.7587 19.5C40.3371 19.5 35.9421 15.2467 35.9421 10C35.9421 4.7533 40.3371 0.5 45.7587 0.5ZM45.4038 1.21088C44.2839 1.3634 43.2175 2.23426 42.3898 3.69076C42.1497 4.11324 41.933 4.57999 41.7442 5.08396C42.8698 4.81023 44.1062 4.64885 45.4038 4.62389V1.21088ZM40.9145 5.31213C41.1494 4.59905 41.4365 3.94299 41.768 3.35981C42.1783 2.63778 42.6653 2.01428 43.214 1.53539C40.2303 2.37398 37.8785 4.64997 37.012 7.53746C37.5068 7.00645 38.1511 6.53516 38.8972 6.13806C39.4998 5.81729 40.1777 5.53932 40.9145 5.31213ZM40.6788 6.11502C40.3959 7.20429 40.2292 8.40086 40.2034 9.65662H36.6767C36.8343 8.57281 37.7341 7.54083 39.2392 6.73979C39.6758 6.50742 40.158 6.29776 40.6788 6.11502ZM40.9132 9.65662C40.9425 8.2862 41.1464 6.99962 41.4837 5.86284C42.6583 5.53643 43.9878 5.33911 45.4038 5.31075V6.79413C44.8756 8.10294 43.7981 9.14557 42.4456 9.65662H40.9132ZM40.2034 10.3434H36.6767C36.8343 11.4272 37.7341 12.4591 39.2392 13.2602C39.6758 13.4926 40.158 13.7022 40.6788 13.885C40.3959 12.7957 40.2292 11.5991 40.2034 10.3434ZM41.4837 14.1372C41.1464 13.0004 40.9425 11.7138 40.9132 10.3434H42.4456C43.7981 10.8544 44.8756 11.8971 45.4038 13.2059V14.6892C43.9878 14.6609 42.6583 14.4636 41.4837 14.1372ZM40.9145 14.6879C40.1777 14.4607 39.4998 14.1827 38.8972 13.8619C38.1511 13.4648 37.5068 12.9935 37.012 12.4625C37.8785 15.35 40.2303 17.626 43.214 18.4646C42.6653 17.9857 42.1783 17.3622 41.768 16.6402C41.4365 16.057 41.1494 15.4009 40.9145 14.6879ZM45.4038 18.7891C44.2839 18.6366 43.2175 17.7657 42.3898 16.3092C42.1497 15.8868 41.933 15.42 41.7442 14.9161C42.8698 15.1898 44.1062 15.3512 45.4038 15.3761V18.7891ZM48.3032 18.4646C48.8519 17.9857 49.3389 17.3622 49.7492 16.6402C50.0805 16.057 50.3681 15.4009 50.6028 14.6879C51.3395 14.4607 52.0173 14.1827 52.6201 13.8619C53.3661 13.4648 54.0106 12.9935 54.5053 12.4625C53.6385 15.35 51.287 17.626 48.3032 18.4646ZM49.7733 14.9161C49.5843 15.42 49.3674 15.8868 49.1273 16.3092C48.2997 17.7657 47.2333 18.6366 46.1134 18.7891V15.3761C47.411 15.3512 48.6475 15.1898 49.7733 14.9161ZM50.8384 13.885C51.3591 13.7022 51.8416 13.4926 52.2779 13.2602C53.7833 12.4592 54.683 11.4272 54.8405 10.3434H51.314C51.288 11.5991 51.1211 12.7957 50.8384 13.885ZM50.6042 10.3434C50.5748 11.7138 50.3711 13.0004 50.0334 14.1372C48.859 14.4636 47.5295 14.6609 46.1134 14.6892V13.207C46.6416 11.8977 47.7193 10.8546 49.0721 10.3434H50.6042ZM51.314 9.65662H54.8405C54.683 8.57281 53.7833 7.54083 52.2779 6.73979C51.8416 6.50742 51.3591 6.29776 50.8384 6.11502C51.1211 7.20429 51.288 8.40086 51.314 9.65662ZM50.0334 5.86284C50.3711 6.99962 50.5748 8.2862 50.6042 9.65662H49.0721C47.7193 9.14543 46.6416 8.10233 46.1134 6.79304V5.31075C47.5295 5.33911 48.859 5.53643 50.0334 5.86284ZM50.6028 5.31213C51.3395 5.53932 52.0173 5.81729 52.6201 6.13806C53.3661 6.53516 54.0106 7.00645 54.5053 7.53746C53.6385 4.64997 51.287 2.37398 48.3032 1.53539C48.8519 2.01428 49.3389 2.63778 49.7492 3.35981C50.0805 3.94299 50.3681 4.59905 50.6028 5.31213ZM46.1134 1.21088C47.2333 1.3634 48.2997 2.23426 49.1273 3.69076C49.3674 4.11325 49.5843 4.57999 49.7733 5.08396C48.6475 4.81023 47.411 4.64885 46.1134 4.62389V1.21088Z" fill="black"/>
</g>
<defs>
<clipPath id="clip0_101_33286">
<rect width="107" height="19" fill="white" transform="translate(0 0.5)"/>
</clipPath>
</defs>
</svg>
