<svg width="235" height="42" viewBox="0 0 235 42" fill="none" xmlns="http://www.w3.org/2000/svg">
<g clip-path="url(#clip0_92_2891)">
<path d="M131.896 30.9998H136.923V12.5317H131.896V30.9998ZM131.896 9.65177H136.923V5.25977H131.896V9.65177Z" fill="white"/>
<path d="M140.162 37.0479H145.189V28.9118H145.262C146.334 30.4959 148.072 31.5399 150.732 31.5399C155.611 31.5399 158.938 27.7599 158.938 21.7839C158.938 16.0238 155.722 12.0278 150.695 12.0278C148.108 12.0278 146.334 13.2159 145.115 14.8358H145.004V12.5318H140.162V37.0479ZM149.661 27.4719C146.667 27.4719 145.078 25.2759 145.078 21.9279C145.078 18.6158 146.334 15.9879 149.476 15.9879C152.581 15.9879 153.837 18.4359 153.837 21.9279C153.837 25.4198 152.211 27.4719 149.661 27.4719Z" fill="white"/>
<path d="M168.964 31.5399C173.695 31.5399 176.947 29.3079 176.947 25.5998C176.947 21.2799 173.436 20.4159 170.258 19.7679C167.559 19.2279 165.047 19.0838 165.047 17.4999C165.047 16.1679 166.34 15.4479 168.299 15.4479C170.443 15.4479 171.737 16.1679 171.957 18.1479H176.503C176.135 14.4399 173.362 12.0278 168.373 12.0278C164.048 12.0278 160.648 13.9359 160.648 17.9319C160.648 21.9639 163.975 22.8638 167.375 23.5119C169.962 24.0159 172.364 24.1959 172.364 25.9599C172.364 27.2559 171.108 28.0839 168.891 28.0839C166.635 28.0839 165.083 27.1478 164.751 25.0239H160.094C160.39 28.9478 163.458 31.5399 168.964 31.5399Z" fill="white"/>
<path d="M196.031 30.9998V12.5317H191.004V23.1878C191.004 25.6357 189.563 27.3637 187.198 27.3637C185.054 27.3637 184.057 26.1758 184.057 24.0158V12.5317H179.067V24.8437C179.067 28.8757 181.432 31.5038 185.646 31.5038C188.307 31.5038 189.785 30.5318 191.079 28.8398H191.19V30.9998H196.031Z" fill="white"/>
<path d="M199.282 30.9999H204.309V20.2719C204.309 17.8238 205.677 16.2399 207.71 16.2399C209.557 16.2399 210.629 17.3198 210.629 19.4079V30.9999H215.656V20.2719C215.656 17.8238 216.949 16.2399 219.056 16.2399C220.904 16.2399 221.976 17.3198 221.976 19.4079V30.9999H227.002V18.5798C227.002 14.5478 224.747 12.0278 220.756 12.0278C218.354 12.0278 216.357 13.2518 215.064 15.2678H214.991C214.067 13.3238 212.145 12.0278 209.742 12.0278C207.118 12.0278 205.27 13.3238 204.235 15.0158H204.124V12.5318H199.282V30.9999Z" fill="white"/>
<path d="M0.888428 30.9998H5.9149V5.25977H0.888428V30.9998Z" fill="white"/>
<path d="M18.2053 31.5399C24.0818 31.5399 28.1104 27.2919 28.1104 21.7839C28.1104 16.2758 24.0818 12.0278 18.2053 12.0278C12.3287 12.0278 8.30017 16.2758 8.30017 21.7839C8.30017 27.2919 12.3287 31.5399 18.2053 31.5399ZM18.2053 27.7959C15.1007 27.7959 13.4006 25.3838 13.4006 21.7839C13.4006 18.1839 15.1007 15.7359 18.2053 15.7359C21.2729 15.7359 23.01 18.1839 23.01 21.7839C23.01 25.3838 21.2729 27.7959 18.2053 27.7959Z" fill="white"/>
<path d="M38.7997 37.2999C41.6086 37.2999 44.048 36.6519 45.6372 35.2118C47.0417 33.9518 47.8918 32.1878 47.8918 29.5959V12.5318H43.0501V14.4759H42.9762C41.8304 12.9279 40.0933 12.0278 37.7279 12.0278C32.9232 12.0278 29.5229 15.5558 29.5229 21.0638C29.5229 26.6438 33.6624 29.8838 37.8758 29.8838C40.2781 29.8838 41.7196 28.9478 42.8283 27.7239H42.9392V29.7399C42.9392 32.2599 41.5717 33.5919 38.7258 33.5919C36.3973 33.5919 35.3255 32.6918 34.919 31.5399H29.9295C30.4469 35.1399 33.6254 37.2999 38.7997 37.2999ZM38.7258 25.9599C36.1386 25.9599 34.4385 24.1238 34.4385 20.9919C34.4385 17.8959 36.1386 15.9519 38.6888 15.9519C41.7196 15.9519 43.1979 18.2559 43.1979 20.9559C43.1979 23.6919 41.9043 25.9599 38.7258 25.9599Z" fill="white"/>
<path d="M60.1095 31.5399C65.986 31.5399 70.0146 27.2919 70.0146 21.7839C70.0146 16.2758 65.986 12.0278 60.1095 12.0278C54.233 12.0278 50.2043 16.2758 50.2043 21.7839C50.2043 27.2919 54.233 31.5399 60.1095 31.5399ZM60.1095 27.7959C57.0049 27.7959 55.3048 25.3838 55.3048 21.7839C55.3048 18.1839 57.0049 15.7359 60.1095 15.7359C63.1771 15.7359 64.9143 18.1839 64.9143 21.7839C64.9143 25.3838 63.1771 27.7959 60.1095 27.7959Z" fill="white"/>
<path d="M228.829 9.5C228.829 8.67157 229.518 8 230.369 8H233.449C234.299 8 234.989 8.67157 234.989 9.5C234.989 10.3284 234.299 11 233.449 11H230.369C229.518 11 228.829 10.3284 228.829 9.5Z" fill="white"/>
<path fill-rule="evenodd" clip-rule="evenodd" d="M100.498 0C112.404 0 122.058 9.40203 122.058 21C122.058 32.598 112.404 42 100.498 42C88.5907 42 78.9381 32.598 78.9381 21C78.9381 9.40203 88.5907 0 100.498 0ZM99.7185 1.57142C97.2588 1.90857 94.9168 3.83363 93.0988 7.05327C92.5715 7.98717 92.0956 9.01893 91.681 10.133C94.1531 9.52788 96.8686 9.17114 99.7185 9.11596V1.57142ZM89.8588 10.6373C90.3745 9.06106 91.0053 7.61082 91.7332 6.32168C92.6344 4.72562 93.704 3.34735 94.9091 2.28876C88.3561 4.14249 83.191 9.17363 81.2878 15.5565C82.3746 14.3827 83.7896 13.3409 85.4282 12.4631C86.7518 11.754 88.2406 11.1396 89.8588 10.6373ZM89.3411 12.4122C88.7198 14.82 88.3536 17.4651 88.2969 20.241H80.5513C80.8974 17.8452 82.8738 15.5639 86.1793 13.7932C87.1381 13.2796 88.1973 12.8161 89.3411 12.4122ZM89.8558 20.241C89.9202 17.2116 90.3679 14.3676 91.1087 11.8547C93.6886 11.1332 96.6084 10.697 99.7185 10.6343V13.9133C98.5582 16.8065 96.1919 19.1113 93.2215 20.241H89.8558ZM88.2969 21.759H80.5513C80.8974 24.1548 82.8738 26.436 86.1793 28.2068C87.1381 28.7204 88.1973 29.1839 89.3411 29.5878C88.7198 27.18 88.3536 24.5349 88.2969 21.759ZM91.1087 30.1453C90.3679 27.6324 89.9202 24.7884 89.8558 21.759H93.2215C96.1919 22.8887 98.5582 25.1935 99.7185 28.0867V31.3657C96.6084 31.303 93.6886 30.8668 91.1087 30.1453ZM89.8588 31.3627C88.2406 30.8604 86.7518 30.246 85.4282 29.5369C83.7896 28.6591 82.3746 27.6173 81.2878 26.4435C83.191 32.8264 88.3561 37.8575 94.9091 39.7112C93.704 38.6526 92.6344 37.2744 91.7332 35.6783C91.0053 34.3892 90.3745 32.9389 89.8588 31.3627ZM99.7185 40.4286C97.2588 40.0914 94.9168 38.1663 93.0988 34.9467C92.5715 34.0129 92.0956 32.981 91.681 31.8671C94.1531 32.4721 96.8686 32.8289 99.7185 32.884V40.4286ZM106.086 39.7112C107.291 38.6526 108.361 37.2744 109.262 35.6783C109.99 34.3892 110.621 32.9389 111.137 31.3627C112.755 30.8604 114.243 30.246 115.567 29.5369C117.206 28.6591 118.621 27.6173 119.708 26.4435C117.804 32.8264 112.639 37.8575 106.086 39.7112ZM109.315 31.8671C108.9 32.981 108.423 34.0129 107.896 34.9467C106.079 38.1663 103.737 40.0914 101.277 40.4286V32.884C104.127 32.8289 106.842 32.4721 109.315 31.8671ZM111.654 29.5878C112.798 29.1839 113.857 28.7204 114.816 28.2068C118.122 26.4361 120.098 24.1548 120.444 21.759H112.699C112.642 24.5349 112.275 27.18 111.654 29.5878ZM111.14 21.759C111.075 24.7884 110.628 27.6324 109.886 30.1453C107.307 30.8668 104.387 31.303 101.277 31.3657V28.0891C102.437 25.1949 104.804 22.8891 107.775 21.759H111.14ZM112.699 20.241H120.444C120.098 17.8452 118.122 15.5639 114.816 13.7932C113.857 13.2796 112.798 12.8161 111.654 12.4122C112.275 14.82 112.642 17.4651 112.699 20.241ZM109.886 11.8547C110.628 14.3676 111.075 17.2116 111.14 20.241H107.775C104.804 19.1109 102.437 16.8051 101.277 13.9109V10.6343C104.387 10.697 107.307 11.1332 109.886 11.8547ZM111.137 10.6373C112.755 11.1396 114.243 11.754 115.567 12.4631C117.206 13.3409 118.621 14.3827 119.708 15.5565C117.804 9.17363 112.639 4.14249 106.086 2.28876C107.291 3.34735 108.361 4.72562 109.262 6.32168C109.99 7.61082 110.621 9.06106 111.137 10.6373ZM101.277 1.57142C103.737 1.90857 106.079 3.83363 107.896 7.05327C108.423 7.98718 108.9 9.01893 109.315 10.133C106.842 9.52788 104.127 9.17114 101.277 9.11596V1.57142Z" fill="white"/>
</g>
<defs>
<clipPath id="clip0_92_2891">
<rect width="235" height="42" fill="white"/>
</clipPath>
</defs>
</svg>
