<svg width="16" height="17" viewBox="0 0 16 17" fill="none" xmlns="http://www.w3.org/2000/svg">
<g clip-path="url(#clip0_349_3599)">
<path d="M7.60997 16.2913C7.69691 16.4217 7.84328 16.5 8 16.5C8.15672 16.5 8.30309 16.4217 8.39003 16.2913C9.49937 14.6273 11.1333 12.5723 12.272 10.4822C13.1824 8.81109 13.625 7.38581 13.625 6.125C13.625 3.02338 11.1016 0.5 8 0.5C4.89838 0.5 2.375 3.02338 2.375 6.125C2.375 7.38581 2.81759 8.81109 3.72803 10.4822C4.86581 12.5707 6.50291 14.6307 7.60997 16.2913ZM8 1.4375C10.5847 1.4375 12.6875 3.54031 12.6875 6.125C12.6875 7.22512 12.2823 8.50369 11.4487 10.0337C10.4672 11.8352 9.06669 13.6627 8 15.199C6.93347 13.6629 5.53281 11.8353 4.55128 10.0337C3.71772 8.50369 3.3125 7.22512 3.3125 6.125C3.3125 3.54031 5.41531 1.4375 8 1.4375Z" fill="#797B85"/>
<path d="M8 8.9375C9.55081 8.9375 10.8125 7.67581 10.8125 6.125C10.8125 4.57419 9.55081 3.3125 8 3.3125C6.44919 3.3125 5.1875 4.57419 5.1875 6.125C5.1875 7.67581 6.44919 8.9375 8 8.9375ZM8 4.25C9.03387 4.25 9.875 5.09113 9.875 6.125C9.875 7.15887 9.03387 8 8 8C6.96613 8 6.125 7.15887 6.125 6.125C6.125 5.09113 6.96613 4.25 8 4.25Z" fill="#797B85"/>
</g>
<defs>
<clipPath id="clip0_349_3599">
<rect width="16" height="16" fill="white" transform="translate(0 0.5)"/>
</clipPath>
</defs>
</svg>
