<svg width="20" height="20" viewBox="0 0 20 20" fill="none" xmlns="http://www.w3.org/2000/svg">
<rect width="20" height="20" rx="10" fill="black"/>
<path d="M10.9434 10.1897C10.9434 12.5036 9.08379 14.3793 6.78996 14.3793C4.49612 14.3793 2.63635 12.5031 2.63635 10.1897C2.63635 7.8763 4.49598 6 6.78996 6C9.08393 6 10.9434 7.87588 10.9434 10.1897Z" fill="white"/>
<path d="M15.4999 10.1899C15.4999 12.3679 14.5701 14.1342 13.4231 14.1342C12.2761 14.1342 11.3463 12.3679 11.3463 10.1899C11.3463 8.01192 12.276 6.24561 13.423 6.24561C14.57 6.24561 15.4998 8.01135 15.4998 10.1899" fill="white"/>
<path d="M17.3636 10.1897C17.3636 12.1407 17.0367 13.7232 16.6332 13.7232C16.2298 13.7232 15.903 12.1411 15.903 10.1897C15.903 8.23835 16.2299 6.65625 16.6332 6.65625C17.0365 6.65625 17.3636 8.23821 17.3636 10.1897Z" fill="white"/>
</svg>
