<svg width="64" height="64" viewBox="0 0 64 64" fill="none" xmlns="http://www.w3.org/2000/svg">
<rect width="64" height="64" rx="32" fill="#FFEDD7"/>
<path fill-rule="evenodd" clip-rule="evenodd" d="M35.7778 32.528C35.5595 31.9105 35.1551 31.3758 34.6203 30.9977C34.0855 30.6196 33.4466 30.4166 32.7916 30.4167V29.625H31.2083V30.4167C30.3684 30.4167 29.563 30.7503 28.9691 31.3442C28.3753 31.938 28.0416 32.7435 28.0416 33.5833C28.0416 34.4232 28.3753 35.2286 28.9691 35.8225C29.563 36.4164 30.3684 36.75 31.2083 36.75V39.9167C30.5195 39.9167 29.9329 39.4773 29.7144 38.8614C29.682 38.7606 29.6297 38.6674 29.5606 38.5872C29.4915 38.507 29.4071 38.4414 29.3122 38.3944C29.2174 38.3474 29.1141 38.32 29.0084 38.3136C28.9027 38.3072 28.7969 38.3221 28.6971 38.3574C28.5973 38.3926 28.5055 38.4476 28.4273 38.5189C28.3491 38.5902 28.286 38.6765 28.2417 38.7727C28.1974 38.8688 28.1729 38.9729 28.1695 39.0787C28.1662 39.1845 28.184 39.2899 28.2221 39.3886C28.4404 40.0062 28.8448 40.5408 29.3796 40.919C29.9144 41.2971 30.5533 41.5001 31.2083 41.5V42.2917H32.7916V41.5C33.6315 41.5 34.4369 41.1664 35.0308 40.5725C35.6247 39.9786 35.9583 39.1732 35.9583 38.3333C35.9583 37.4935 35.6247 36.688 35.0308 36.0942C34.4369 35.5003 33.6315 35.1667 32.7916 35.1667V32C33.1191 31.9999 33.4385 32.1014 33.7059 32.2904C33.9733 32.4793 34.1755 32.7466 34.2847 33.0553C34.3546 33.2533 34.5003 33.4154 34.6898 33.506C34.7836 33.5508 34.8853 33.5767 34.9891 33.5823C35.0929 33.5878 35.1968 33.5728 35.2949 33.5382C35.3929 33.5036 35.4832 33.45 35.5605 33.3805C35.6378 33.311 35.7007 33.2269 35.7455 33.1331C35.7904 33.0393 35.8163 32.9376 35.8219 32.8338C35.8274 32.73 35.8124 32.6261 35.7778 32.528ZM31.2083 32C30.7884 32 30.3856 32.1668 30.0887 32.4637C29.7918 32.7607 29.625 33.1634 29.625 33.5833C29.625 34.0033 29.7918 34.406 30.0887 34.7029C30.3856 34.9999 30.7884 35.1667 31.2083 35.1667V32ZM32.7916 39.9167C33.2116 39.9167 33.6143 39.7499 33.9112 39.4529C34.2081 39.156 34.375 38.7533 34.375 38.3333C34.375 37.9134 34.2081 37.5107 33.9112 37.2137C33.6143 36.9168 33.2116 36.75 32.7916 36.75V39.9167Z" fill="#F59421"/>
<path fill-rule="evenodd" clip-rule="evenodd" d="M23.4127 19.825C25.3555 18.8742 28.5427 17.75 32.0308 17.75C35.4461 17.75 38.5494 18.8275 40.4819 19.7656L40.5911 19.8186C41.1738 20.1068 41.644 20.3791 41.9749 20.6L39.0505 24.875C45.7924 31.7673 50.9999 46.2476 32.0308 46.2476C13.0617 46.2476 18.1292 32.0301 24.9296 24.875L22.0242 20.6C22.2482 20.4535 22.5324 20.2833 22.8712 20.1028C23.0391 20.0126 23.2196 19.9194 23.4127 19.825ZM37.1711 24.8188L39.5121 21.3964C37.335 21.5532 34.7447 22.0646 32.2509 22.7866C30.4697 23.3012 28.4905 23.2228 26.6578 22.8848C26.1959 22.7992 25.7373 22.6973 25.2827 22.5792L26.8027 24.8172C30.0604 25.977 33.9126 25.977 37.1711 24.8188ZM25.8883 26.1654C29.7002 27.6379 34.2815 27.6379 38.0934 26.1638C39.6841 27.8415 41.0151 29.7475 42.0422 31.8187C43.1126 34.0021 43.6952 36.1848 43.6002 38.0658C43.5084 39.881 42.7943 41.4319 41.1635 42.5846C39.4638 43.7855 36.6051 44.6643 32.03 44.6643C27.4502 44.6643 24.5781 43.8006 22.8625 42.6131C21.2198 41.4755 20.4986 39.9452 20.3965 38.1544C20.2896 36.294 20.8596 34.1225 21.926 31.924C22.9433 29.8277 24.3627 27.8097 25.8883 26.1654ZM24.9779 20.8502C25.6112 21.0386 26.273 21.2025 26.9444 21.3267C28.6464 21.6402 30.3533 21.6862 31.8099 21.2642C33.5074 20.7695 35.2339 20.3806 36.9795 20.0997C35.5229 19.6611 33.8192 19.3333 32.03 19.3333C29.3027 19.3333 26.7591 20.0941 24.9779 20.8502Z" fill="#F59421"/>
</svg>
