<svg width="25" height="24" viewBox="0 0 25 24" fill="none" xmlns="http://www.w3.org/2000/svg">
<path d="M9.5 12H15.5" stroke="#2DA5F3" stroke-width="1.5" stroke-linecap="round" stroke-linejoin="round"/>
<path d="M9.5 15H15.5" stroke="#2DA5F3" stroke-width="1.5" stroke-linecap="round" stroke-linejoin="round"/>
<path d="M5.75 3.75H19.25C19.4489 3.75 19.6397 3.82902 19.7803 3.96967C19.921 4.11032 20 4.30109 20 4.5V18.75C20 19.3467 19.7629 19.919 19.341 20.341C18.919 20.7629 18.3467 21 17.75 21H7.25C6.65326 21 6.08097 20.7629 5.65901 20.341C5.23705 19.919 5 19.3467 5 18.75V4.5C5 4.30109 5.07902 4.11032 5.21967 3.96967C5.36032 3.82902 5.55109 3.75 5.75 3.75V3.75Z" stroke="#2DA5F3" stroke-width="1.5" stroke-linecap="round" stroke-linejoin="round"/>
<path d="M8 2.25V5.25" stroke="#2DA5F3" stroke-width="1.5" stroke-linecap="round" stroke-linejoin="round"/>
<path d="M12.5 2.25V5.25" stroke="#2DA5F3" stroke-width="1.5" stroke-linecap="round" stroke-linejoin="round"/>
<path d="M17 2.25V5.25" stroke="#2DA5F3" stroke-width="1.5" stroke-linecap="round" stroke-linejoin="round"/>
</svg>
