<svg width="14" height="12" viewBox="0 0 14 12" fill="none" xmlns="http://www.w3.org/2000/svg">
<path d="M12.6565 0.75H1.3435C1.05349 0.75 0.77535 0.865208 0.570279 1.07028C0.365208 1.27535 0.25 1.55349 0.25 1.8435V9.9795C0.25 10.1231 0.278284 10.2653 0.333238 10.398C0.388191 10.5306 0.468738 10.6512 0.570279 10.7527C0.67182 10.8543 0.792366 10.9348 0.925036 10.9898C1.05771 11.0447 1.1999 11.073 1.3435 11.073H12.6565C12.8001 11.073 12.9423 11.0447 13.075 10.9898C13.2076 10.9348 13.3282 10.8543 13.4297 10.7527C13.5313 10.6512 13.6118 10.5306 13.6668 10.398C13.7217 10.2653 13.75 10.1231 13.75 9.9795V1.8435C13.75 1.6999 13.7217 1.55771 13.6668 1.42504C13.6118 1.29237 13.5313 1.17182 13.4297 1.07028C13.3282 0.968738 13.2076 0.888191 13.075 0.833238C12.9423 0.778284 12.8001 0.75 12.6565 0.75ZM2.0185 2.1015H11.9815C12.092 2.1019 12.1978 2.14596 12.2759 2.22407C12.354 2.30219 12.3981 2.40803 12.3985 2.5185V3.633H1.5985V2.5185C1.5987 2.46354 1.60972 2.40916 1.63093 2.35846C1.65214 2.30776 1.68313 2.26174 1.72214 2.22301C1.76114 2.18429 1.80738 2.15363 1.85823 2.13278C1.90908 2.11193 1.96354 2.1013 2.0185 2.1015ZM11.9815 9.7215H2.0185C1.90803 9.72111 1.80219 9.67705 1.72407 9.59893C1.64596 9.52081 1.6019 9.41498 1.6015 9.3045V5.6865H12.4015V9.3045C12.4013 9.35946 12.3903 9.41384 12.3691 9.46454C12.3479 9.51524 12.3169 9.56126 12.2779 9.59999C12.2389 9.63871 12.1926 9.66937 12.1418 9.69022C12.0909 9.71107 12.0365 9.7217 11.9815 9.7215Z" fill="#212121"/>
</svg>
