<svg width="32" height="32" viewBox="0 0 32 32" fill="none" xmlns="http://www.w3.org/2000/svg">
<path opacity="0.2" d="M4.1375 9.325C4.04693 9.48057 3.99946 9.65748 4 9.8375V22.1625C4.00096 22.3405 4.04884 22.5152 4.13882 22.6688C4.2288 22.8224 4.35769 22.9496 4.5125 23.0375L15.5125 29.225C15.6608 29.3097 15.8292 29.3529 16 29.35L16.1125 16L4.1375 9.325Z" fill="#2DB324"/>
<path d="M28 22.1625V9.8375C27.999 9.65947 27.9512 9.48484 27.8612 9.33122C27.7712 9.1776 27.6423 9.05042 27.4875 8.9625L16.4875 2.775C16.3393 2.68943 16.1711 2.64438 16 2.64438C15.8289 2.64438 15.6607 2.68943 15.5125 2.775L4.5125 8.9625C4.35769 9.05042 4.22879 9.1776 4.13882 9.33122C4.04884 9.48484 4.00096 9.65947 4 9.8375V22.1625C4.00096 22.3405 4.04884 22.5152 4.13882 22.6688C4.22879 22.8224 4.35769 22.9496 4.5125 23.0375L15.5125 29.225C15.6607 29.3106 15.8289 29.3556 16 29.3556C16.1711 29.3556 16.3393 29.3106 16.4875 29.225L27.4875 23.0375C27.6423 22.9496 27.7712 22.8224 27.8612 22.6688C27.9512 22.5152 27.999 22.3405 28 22.1625V22.1625Z" stroke="#2DB324" stroke-width="2" stroke-linecap="round" stroke-linejoin="round"/>
<path d="M22.125 19.0625V12.5625L10 5.875" stroke="#2DB324" stroke-width="2" stroke-linecap="round" stroke-linejoin="round"/>
<path d="M27.8617 9.325L16.1117 16L4.13672 9.325" stroke="#2DB324" stroke-width="2" stroke-linecap="round" stroke-linejoin="round"/>
<path d="M16.1125 16L16 29.35" stroke="#2DB324" stroke-width="2" stroke-linecap="round" stroke-linejoin="round"/>
</svg>
