<svg width="42" height="42" viewBox="0 0 42 42" fill="none" xmlns="http://www.w3.org/2000/svg">
<path d="M20.7001 20.2315C23.4796 20.2315 25.886 19.2347 27.8528 17.2678C29.819 15.3013 30.8162 12.8952 30.8162 10.1154C30.8162 7.33661 29.8194 4.93015 27.8525 2.963C25.8857 0.996811 23.4792 -6.10352e-05 20.7001 -6.10352e-05C17.9203 -6.10352e-05 15.5142 0.996811 13.5477 2.96332C11.5812 4.92982 10.584 7.33629 10.584 10.1154C10.584 12.8952 11.5812 15.3017 13.5477 17.2682C15.5148 19.2343 17.9213 20.2315 20.7001 20.2315ZM15.2883 4.7036C16.7972 3.19467 18.5673 2.4612 20.7001 2.4612C22.8326 2.4612 24.603 3.19467 26.1122 4.7036C27.6212 6.21284 28.355 7.98325 28.355 10.1154C28.355 12.2482 27.6212 14.0183 26.1122 15.5276C24.603 17.0368 22.8326 17.7703 20.7001 17.7703C18.5679 17.7703 16.7979 17.0365 15.2883 15.5276C13.779 14.0186 13.0452 12.2482 13.0452 10.1154C13.0452 7.98325 13.779 6.21284 15.2883 4.7036Z" fill="#43B749"/>
<path d="M38.4012 32.2959C38.3445 31.4775 38.2298 30.5848 38.0609 29.642C37.8904 28.6923 37.6709 27.7944 37.4082 26.9738C37.1364 26.1256 36.7676 25.288 36.311 24.4853C35.8377 23.6522 35.2814 22.9267 34.6572 22.3297C34.0045 21.7052 33.2054 21.2031 32.2812 20.8368C31.3603 20.4725 30.3397 20.2879 29.248 20.2879C28.8192 20.2879 28.4046 20.4638 27.6038 20.9852C27.111 21.3066 26.5345 21.6783 25.8911 22.0894C25.3409 22.44 24.5956 22.7684 23.675 23.0658C22.7768 23.3564 21.8649 23.5038 20.9644 23.5038C20.0647 23.5038 19.1527 23.3564 18.2539 23.0658C17.3342 22.7687 16.5886 22.4403 16.0394 22.0897C15.402 21.6824 14.8252 21.3107 14.325 20.9849C13.5249 20.4635 13.1103 20.2876 12.6815 20.2876C11.5895 20.2876 10.5692 20.4725 9.64861 20.8371C8.72511 21.2028 7.92563 21.7049 7.27226 22.33C6.64806 22.9273 6.09178 23.6525 5.61882 24.4853C5.16284 25.288 4.7937 26.1253 4.52197 26.9741C4.25954 27.7947 4.04004 28.6923 3.86957 29.642C3.70038 30.5835 3.58598 31.4765 3.52927 32.2968C3.47351 33.0989 3.44531 33.9336 3.44531 34.777C3.44531 36.9694 4.14226 38.7443 5.5166 40.0533C6.87396 41.345 8.66968 41.9999 10.8541 41.9999H31.0773C33.2611 41.9999 35.0568 41.345 36.4145 40.0533C37.7892 38.7453 38.4861 36.9697 38.4861 34.7767C38.4858 33.9304 38.4573 33.0957 38.4012 32.2959ZM34.7175 38.2701C33.8206 39.1237 32.6299 39.5387 31.077 39.5387H10.8541C9.30093 39.5387 8.1102 39.1237 7.21362 38.2704C6.33403 37.4331 5.90657 36.2901 5.90657 34.777C5.90657 33.99 5.93253 33.213 5.98444 32.467C6.03506 31.7351 6.13857 30.9312 6.29205 30.0769C6.44362 29.2332 6.63652 28.4414 6.86595 27.7246C7.08609 27.0372 7.38634 26.3566 7.75868 25.701C8.11404 25.0762 8.52292 24.5401 8.97409 24.1081C9.3961 23.7041 9.92802 23.3734 10.5548 23.1254C11.1345 22.8959 11.7859 22.7703 12.4931 22.7514C12.5793 22.7972 12.7328 22.8847 12.9814 23.0469C13.4874 23.3766 14.0706 23.7528 14.7153 24.1645C15.4421 24.6279 16.3784 25.0464 17.497 25.4075C18.6406 25.7773 19.807 25.9651 20.9648 25.9651C22.1225 25.9651 23.2892 25.7773 24.4322 25.4078C25.5518 25.0461 26.4878 24.6279 27.2155 24.1639C27.8752 23.7422 28.4421 23.3769 28.9481 23.0469C29.1967 22.885 29.3502 22.7972 29.4364 22.7514C30.1439 22.7703 30.7954 22.8959 31.3754 23.1254C32.0018 23.3734 32.5337 23.7044 32.9557 24.1081C33.4069 24.5398 33.8158 25.0759 34.1711 25.7013C34.5438 26.3566 34.8444 27.0376 35.0642 27.7242C35.2939 28.442 35.4872 29.2335 35.6384 30.0766C35.7916 30.9324 35.8954 31.7367 35.946 32.4673V32.468C35.9983 33.211 36.0245 33.9878 36.0249 34.777C36.0245 36.2904 35.5971 37.4331 34.7175 38.2701Z" fill="#43B749"/>
</svg>
