<svg width="24" height="25" viewBox="0 0 24 25" fill="none" xmlns="http://www.w3.org/2000/svg">
<g clip-path="url(#clip0_587_4047)">
<path d="M11.8295 12.0609C13.4177 12.0609 14.7928 11.4913 15.9167 10.3674C17.0403 9.24365 17.6101 7.86871 17.6101 6.28027C17.6101 4.69238 17.0405 3.31726 15.9166 2.19318C14.7927 1.06964 13.4175 0.5 11.8295 0.5C10.241 0.5 8.86609 1.06964 7.74237 2.19336C6.61865 3.31708 6.04883 4.6922 6.04883 6.28027C6.04883 7.86871 6.61865 9.24384 7.74237 10.3676C8.86646 11.4911 10.2416 12.0609 11.8295 12.0609ZM8.737 3.18781C9.59924 2.32556 10.6107 1.90643 11.8295 1.90643C13.048 1.90643 14.0597 2.32556 14.9221 3.18781C15.7844 4.05023 16.2037 5.06189 16.2037 6.28027C16.2037 7.49902 15.7844 8.5105 14.9221 9.37292C14.0597 10.2354 13.048 10.6545 11.8295 10.6545C10.6111 10.6545 9.59961 10.2352 8.737 9.37292C7.87457 8.51068 7.45526 7.49902 7.45526 6.28027C7.45526 5.06189 7.87457 4.05023 8.737 3.18781Z" fill="#43B749"/>
<path d="M21.9435 18.9548C21.9111 18.4872 21.8456 17.9771 21.7491 17.4384C21.6517 16.8956 21.5262 16.3826 21.3761 15.9136C21.2208 15.429 21.0101 14.9503 20.7491 14.4916C20.4787 14.0156 20.1608 13.601 19.8041 13.2599C19.4312 12.903 18.9745 12.6161 18.4464 12.4068C17.9202 12.1986 17.337 12.0931 16.7131 12.0931C16.4681 12.0931 16.2312 12.1937 15.7736 12.4916C15.492 12.6752 15.1626 12.8876 14.7949 13.1226C14.4805 13.3229 14.0546 13.5106 13.5286 13.6805C13.0153 13.8466 12.4942 13.9308 11.9797 13.9308C11.4655 13.9308 10.9444 13.8466 10.4308 13.6805C9.90527 13.5107 9.47919 13.3231 9.16534 13.1227C8.80115 12.89 8.47156 12.6776 8.18573 12.4914C7.72852 12.1935 7.49158 12.093 7.24658 12.093C6.62256 12.093 6.03955 12.1986 5.51349 12.407C4.98578 12.6159 4.52893 12.9028 4.15558 13.2601C3.79889 13.6014 3.48102 14.0157 3.21075 14.4916C2.9502 14.9503 2.73926 15.4288 2.58398 15.9138C2.43402 16.3828 2.30859 16.8956 2.21118 17.4384C2.1145 17.9763 2.04913 18.4866 2.01672 18.9554C1.98486 19.4137 1.96875 19.8907 1.96875 20.3726C1.96875 21.6254 2.367 22.6396 3.15234 23.3876C3.92798 24.1257 4.9541 24.5 6.20233 24.5H17.7585C19.0063 24.5 20.0325 24.1257 20.8083 23.3876C21.5938 22.6402 21.9921 21.6256 21.9921 20.3724C21.9919 19.8889 21.9756 19.4119 21.9435 18.9548ZM19.8386 22.3687C19.326 22.8564 18.6456 23.0936 17.7583 23.0936H6.20233C5.31482 23.0936 4.6344 22.8564 4.12207 22.3688C3.61945 21.8904 3.37518 21.2372 3.37518 20.3726C3.37518 19.9229 3.39001 19.4789 3.41968 19.0526C3.44861 18.6344 3.50775 18.175 3.59546 17.6868C3.68207 17.2047 3.7923 16.7523 3.9234 16.3427C4.04919 15.9499 4.22076 15.561 4.43353 15.1863C4.6366 14.8293 4.87024 14.5229 5.12805 14.2761C5.3692 14.0452 5.67316 13.8563 6.03131 13.7145C6.36255 13.5834 6.7348 13.5117 7.13892 13.5009C7.18817 13.527 7.27588 13.577 7.41797 13.6697C7.70709 13.8581 8.04034 14.0731 8.40875 14.3083C8.82404 14.5731 9.35907 14.8123 9.99829 15.0186C10.6518 15.2299 11.3183 15.3372 11.9799 15.3372C12.6414 15.3372 13.3081 15.2299 13.9612 15.0188C14.601 14.8121 15.1359 14.5731 15.5517 14.308C15.9287 14.067 16.2526 13.8583 16.5417 13.6697C16.6838 13.5772 16.7715 13.527 16.8208 13.5009C17.2251 13.5117 17.5974 13.5834 17.9288 13.7145C18.2867 13.8563 18.5907 14.0454 18.8318 14.2761C19.0897 14.5228 19.3233 14.8291 19.5264 15.1865C19.7393 15.561 19.9111 15.9501 20.0367 16.3425C20.168 16.7526 20.2784 17.2049 20.3648 17.6866C20.4523 18.1757 20.5117 18.6353 20.5406 19.0528V19.0532C20.5704 19.4778 20.5854 19.9216 20.5856 20.3726C20.5854 21.2374 20.3412 21.8904 19.8386 22.3687Z" fill="#43B749"/>
</g>
<defs>
<clipPath id="clip0_587_4047">
<rect width="24" height="24" fill="white" transform="translate(0 0.5)"/>
</clipPath>
</defs>
</svg>
