<svg width="21" height="17" viewBox="0 0 21 17" fill="none" xmlns="http://www.w3.org/2000/svg">
<path d="M10.5 16.9375C10.0093 16.9379 9.52885 16.7973 9.11578 16.5325C7.94391 15.7792 5.69016 14.2333 3.78375 12.3456C1.44422 10.0272 0.257812 7.84372 0.257812 5.85435C0.257812 4.472 0.666563 3.20544 1.44 2.192C2.17344 1.22837 3.2095 0.539247 4.38173 0.235326C5.55397 -0.0685937 6.79435 0.0303361 7.90359 0.516223C8.89641 0.944661 9.78187 1.667 10.5 2.6256C11.2181 1.66466 12.1036 0.942317 13.0964 0.516223C14.2057 0.0303361 15.446 -0.0685937 16.6183 0.235326C17.7905 0.539247 18.8266 1.22837 19.56 2.192C20.3334 3.20544 20.7422 4.472 20.7422 5.85435C20.7422 7.84372 19.5558 10.0262 17.2162 12.3437C15.3098 14.2314 13.057 15.7773 11.8842 16.5306C11.4714 16.7961 10.9909 16.9373 10.5 16.9375ZM5.72625 1.23716C5.3555 1.23683 4.98634 1.28569 4.62844 1.38247C3.73014 1.62909 2.93737 2.1632 2.37141 2.9031C1.75547 3.71029 1.42969 4.73122 1.42969 5.85622C1.42969 7.52122 2.49891 9.42435 4.60828 11.5131C6.43641 13.3253 8.61469 14.8178 9.74906 15.5443C9.97304 15.6874 10.2333 15.7635 10.4991 15.7635C10.7648 15.7635 11.0251 15.6874 11.2491 15.5443C12.3834 14.8159 14.5598 13.3234 16.3898 11.5131C18.4992 9.42435 19.5684 7.52122 19.5684 5.85622C19.5684 4.73122 19.2427 3.71216 18.6267 2.9031C18.0608 2.1632 17.268 1.62909 16.3697 1.38247C14.768 0.947473 12.5175 1.40216 11.0034 3.9831C10.9518 4.0713 10.878 4.14445 10.7894 4.19529C10.7007 4.24613 10.6003 4.27288 10.4981 4.27288C10.3959 4.27288 10.2955 4.24613 10.2069 4.19529C10.1182 4.14445 10.0444 4.0713 9.99281 3.9831C8.80312 1.95154 7.155 1.23716 5.72625 1.23716Z" fill="#FAFAFA"/>
</svg>
