<svg width="18" height="19" viewBox="0 0 18 19" fill="none" xmlns="http://www.w3.org/2000/svg">
<path d="M11.2203 2.86693C11.1435 2.78649 11.042 2.74443 10.9383 2.75C10.8345 2.75557 10.7369 2.80832 10.667 2.89663C10.597 2.98495 10.5604 3.10161 10.5653 3.22094C10.5701 3.34026 10.616 3.45249 10.6928 3.53293L15.5191 8.59993H1.17393C1.07015 8.59993 0.970618 8.64734 0.897234 8.73174C0.82385 8.81613 0.782623 8.93059 0.782623 9.04993C0.782623 9.16928 0.82385 9.28374 0.897234 9.36813C0.970618 9.45252 1.07015 9.49993 1.17393 9.49993H15.5176L10.6928 14.5651C10.6161 14.6456 10.5703 14.7578 10.5656 14.877C10.5608 14.9962 10.5974 15.1128 10.6674 15.201C10.7373 15.2892 10.8349 15.3418 10.9386 15.3473C11.0422 15.3528 11.1436 15.3107 11.2203 15.2302L16.6328 9.54763C16.6934 9.48461 16.7418 9.40767 16.775 9.32179C16.8081 9.23591 16.8252 9.14299 16.8252 9.04903C16.8252 8.95507 16.8081 8.86216 16.775 8.77628C16.7418 8.6904 16.6934 8.61346 16.6328 8.55043L11.2203 2.86693Z" fill="#43B749"/>
</svg>
