<svg width="23" height="21" viewBox="0 0 23 21" fill="none" xmlns="http://www.w3.org/2000/svg">
<path d="M14.337 3.12998C14.2389 3.0406 14.1093 2.99387 13.9767 3.00006C13.8441 3.00625 13.7194 3.06485 13.63 3.16298C13.5406 3.26111 13.4939 3.39073 13.5001 3.52332C13.5063 3.6559 13.5649 3.7806 13.663 3.86998L19.83 9.49998H1.5C1.36739 9.49998 1.24021 9.55266 1.14645 9.64643C1.05268 9.7402 1 9.86737 1 9.99998C1 10.1326 1.05268 10.2598 1.14645 10.3535C1.24021 10.4473 1.36739 10.5 1.5 10.5H19.828L13.663 16.128C13.565 16.2174 13.5065 16.342 13.5004 16.4745C13.4943 16.607 13.5411 16.7365 13.6305 16.8345C13.7199 16.9325 13.8445 16.991 13.977 16.9971C14.1095 17.0031 14.239 16.9564 14.337 16.867L21.253 10.553C21.3304 10.4829 21.3923 10.3975 21.4347 10.302C21.477 10.2066 21.4989 10.1034 21.4989 9.99898C21.4989 9.89458 21.477 9.79134 21.4347 9.69592C21.3923 9.6005 21.3304 9.51501 21.253 9.44498L14.337 3.12998Z" fill="#F59421"/>
</svg>
