<svg width="32" height="32" viewBox="0 0 32 32" fill="none" xmlns="http://www.w3.org/2000/svg">
<path opacity="0.2" d="M9.23769 13.925L5.31269 18.625C5.21381 18.7403 5.14404 18.8777 5.10924 19.0256C5.07444 19.1735 5.07562 19.3276 5.11269 19.475L6.65019 26.4375C6.68729 26.603 6.76587 26.7563 6.87855 26.8831C6.99123 27.0099 7.1343 27.1059 7.2943 27.1621C7.45431 27.2184 7.62599 27.233 7.79321 27.2047C7.96043 27.1763 8.11768 27.1059 8.25019 27L12.0002 24C9.80019 20.175 9.08769 16.8125 9.23769 13.925Z" fill="#2DA5F3"/>
<path opacity="0.2" d="M22.6883 13.8375L26.6133 18.55C26.7122 18.6654 26.7819 18.8028 26.8167 18.9507C26.8515 19.0986 26.8503 19.2526 26.8133 19.4L25.2758 26.35C25.2403 26.5165 25.163 26.6713 25.051 26.7996C24.939 26.9278 24.7961 27.0254 24.6359 27.083C24.4756 27.1406 24.3033 27.1563 24.1353 27.1286C23.9673 27.101 23.8091 27.0309 23.6758 26.925L19.9258 23.925C22.1258 20.0875 22.8383 16.725 22.6883 13.8375Z" fill="#2DA5F3"/>
<path d="M18 28H14" stroke="#2DA5F3" stroke-width="2" stroke-linecap="round" stroke-linejoin="round"/>
<path d="M15.3749 2.47499C12.9999 4.37499 5.06243 11.975 11.9999 24H19.9999C26.7999 11.975 18.9749 4.38749 16.6249 2.47499C16.4496 2.32854 16.2284 2.24832 15.9999 2.24832C15.7715 2.24832 15.5503 2.32854 15.3749 2.47499Z" stroke="#2DA5F3" stroke-width="2" stroke-linecap="round" stroke-linejoin="round"/>
<path d="M9.23769 13.925L5.31269 18.625C5.21381 18.7403 5.14404 18.8777 5.10924 19.0256C5.07444 19.1735 5.07562 19.3276 5.11269 19.475L6.65019 26.4375C6.68729 26.603 6.76587 26.7563 6.87855 26.8831C6.99123 27.0099 7.1343 27.1059 7.2943 27.1621C7.45431 27.2184 7.62599 27.233 7.79321 27.2047C7.96043 27.1763 8.11768 27.1059 8.25019 27L12.0002 24" stroke="#2DA5F3" stroke-width="2" stroke-linecap="round" stroke-linejoin="round"/>
<path d="M22.6875 13.825L26.6875 18.625C26.7864 18.7404 26.8561 18.8778 26.8909 19.0257C26.9258 19.1736 26.9246 19.3277 26.8875 19.475L25.35 26.4375C25.3129 26.603 25.2343 26.7564 25.1216 26.8831C25.009 27.0099 24.8659 27.1059 24.7059 27.1622C24.5459 27.2184 24.3742 27.233 24.207 27.2047C24.0398 27.1763 23.8825 27.1059 23.75 27L20 24" stroke="#2DA5F3" stroke-width="2" stroke-linecap="round" stroke-linejoin="round"/>
<path d="M16 13.5C16.8284 13.5 17.5 12.8284 17.5 12C17.5 11.1716 16.8284 10.5 16 10.5C15.1716 10.5 14.5 11.1716 14.5 12C14.5 12.8284 15.1716 13.5 16 13.5Z" fill="#2DA5F3"/>
</svg>
