<svg width="20" height="20" viewBox="0 0 20 20" fill="none" xmlns="http://www.w3.org/2000/svg">
<rect width="20" height="20" rx="10" fill="black"/>
<path d="M12.7886 8.05377C13.6889 8.69962 14.7918 9.07962 15.983 9.07962V6.77927C15.7576 6.77932 15.5327 6.75573 15.3121 6.70883V8.51954C14.1211 8.51954 13.0183 8.13953 12.1178 7.49373V12.1881C12.1178 14.5364 10.2208 16.44 7.88096 16.44C7.0079 16.44 6.19643 16.1751 5.52234 15.7209C6.2917 16.5103 7.36464 17.0001 8.55166 17.0001C10.8917 17.0001 12.7887 15.0965 12.7887 12.748V8.05377H12.7886ZM13.6162 5.73299C13.1561 5.22855 12.854 4.57664 12.7886 3.85593V3.56006H12.1529C12.3129 4.47608 12.8587 5.25867 13.6162 5.73299ZM7.00231 13.9188C6.74525 13.5805 6.60633 13.1668 6.60695 12.7413C6.60695 11.6673 7.47461 10.7964 8.54506 10.7964C8.74455 10.7964 8.94285 10.827 9.13297 10.8875V8.53578C8.91079 8.50522 8.68655 8.49225 8.46241 8.497V10.3275C8.27216 10.267 8.07376 10.2362 7.87422 10.2364C6.80377 10.2364 5.93616 11.1072 5.93616 12.1814C5.93616 12.9409 6.36985 13.5985 7.00231 13.9188Z" fill="#FF004F"/>
<path d="M12.1178 7.49368C13.0183 8.13948 14.1211 8.51949 15.3122 8.51949V6.70878C14.6473 6.56666 14.0587 6.21798 13.6162 5.73299C12.8587 5.25862 12.3129 4.47603 12.1529 3.56006H10.4831V12.7479C10.4793 13.819 9.61314 14.6863 8.54498 14.6863C7.91554 14.6863 7.35634 14.3852 7.00219 13.9188C6.36978 13.5985 5.93609 12.9408 5.93609 12.1814C5.93609 11.1073 6.8037 10.2365 7.87415 10.2365C8.07924 10.2365 8.27692 10.2685 8.46234 10.3276V8.49705C6.16358 8.54471 4.31482 10.4297 4.31482 12.748C4.31482 13.9052 4.7752 14.9544 5.52241 15.7209C6.1965 16.1751 7.00798 16.4401 7.88104 16.4401C10.221 16.4401 12.1179 14.5364 12.1179 12.1881V7.49368H12.1178Z" fill="white"/>
<path d="M15.3122 6.70871V6.21911C14.7126 6.22003 14.1249 6.05153 13.6162 5.73288C14.0665 6.22762 14.6594 6.56875 15.3122 6.70871ZM12.1529 3.55999C12.1377 3.47245 12.126 3.38433 12.1178 3.29587V3H9.81221V12.188C9.80853 13.2589 8.94241 14.1262 7.87416 14.1262C7.56054 14.1262 7.26443 14.0515 7.0022 13.9188C7.35635 14.3852 7.91555 14.6862 8.545 14.6862C9.61305 14.6862 10.4794 13.819 10.4831 12.7479V3.55999H12.1529ZM8.46245 8.49698V7.97577C8.2698 7.94934 8.07557 7.93608 7.8811 7.93618C5.54099 7.93613 3.64404 9.83981 3.64404 12.188C3.64404 13.6601 4.38958 14.9576 5.52247 15.7207C4.77526 14.9542 4.31488 13.9051 4.31488 12.7479C4.31488 10.4296 6.16359 8.54465 8.46245 8.49698Z" fill="#00F2EA"/>
</svg>
