<svg width="33" height="32" viewBox="0 0 33 32" fill="none" xmlns="http://www.w3.org/2000/svg">
<path opacity="0.2" d="M22.5 18H2.5V23C2.5 23.2652 2.60536 23.5196 2.79289 23.7071C2.98043 23.8946 3.23478 24 3.5 24H6C6 23.2044 6.31607 22.4413 6.87868 21.8787C7.44129 21.3161 8.20435 21 9 21C9.79565 21 10.5587 21.3161 11.1213 21.8787C11.6839 22.4413 12 23.2044 12 24H21C20.9997 23.4731 21.1381 22.9553 21.4014 22.4989C21.6648 22.0425 22.0437 21.6635 22.5 21.4V18Z" fill="#89E58E"/>
<path opacity="0.2" d="M27 24C27.0003 23.4732 26.862 22.9557 26.5988 22.4993C26.3356 22.043 25.9569 21.664 25.5008 21.4005C25.0447 21.1369 24.5273 20.9982 24.0005 20.9981C23.4737 20.998 22.9562 21.1366 22.5 21.4V15H30.5V23C30.5 23.2652 30.3946 23.5196 30.2071 23.7071C30.0196 23.8946 29.7652 24 29.5 24H27Z" fill="#89E58E"/>
<path d="M22.5 9.99999H27.825C28.0242 9.99869 28.2192 10.0577 28.3843 10.1692C28.5494 10.2808 28.6769 10.4397 28.75 10.625L30.5 15" stroke="#89E58E" stroke-width="2" stroke-linecap="round" stroke-linejoin="round"/>
<path d="M2.5 18H22.5" stroke="#89E58E" stroke-width="2" stroke-linecap="round" stroke-linejoin="round"/>
<path d="M24 27C25.6569 27 27 25.6569 27 24C27 22.3431 25.6569 21 24 21C22.3431 21 21 22.3431 21 24C21 25.6569 22.3431 27 24 27Z" stroke="#89E58E" stroke-width="2" stroke-miterlimit="10"/>
<path d="M9 27C10.6569 27 12 25.6569 12 24C12 22.3431 10.6569 21 9 21C7.34315 21 6 22.3431 6 24C6 25.6569 7.34315 27 9 27Z" stroke="#89E58E" stroke-width="2" stroke-miterlimit="10"/>
<path d="M21 24H12" stroke="#89E58E" stroke-width="2" stroke-linecap="round" stroke-linejoin="round"/>
<path d="M6 24H3.5C3.23478 24 2.98043 23.8946 2.79289 23.7071C2.60536 23.5196 2.5 23.2652 2.5 23V9C2.5 8.73478 2.60536 8.48043 2.79289 8.29289C2.98043 8.10536 3.23478 8 3.5 8H22.5V21.4" stroke="#89E58E" stroke-width="2" stroke-linecap="round" stroke-linejoin="round"/>
<path d="M22.5 15H30.5V23C30.5 23.2652 30.3946 23.5196 30.2071 23.7071C30.0196 23.8946 29.7652 24 29.5 24H27" stroke="#89E58E" stroke-width="2" stroke-linecap="round" stroke-linejoin="round"/>
</svg>
