<svg width="15" height="13" viewBox="0 0 15 13" fill="none" xmlns="http://www.w3.org/2000/svg">
<path d="M11.897 7.26598C10.9505 8.43239 9.57611 9.68986 7.81798 11.288L7.51199 11.5544L7.19001 11.2638L7.18738 11.2614L7.1864 11.2605C5.4242 9.65838 4.0488 8.40794 3.101 7.24739C2.16554 6.10194 1.75 5.16485 1.75 4.208C1.75 2.66891 2.91891 1.5 4.458 1.5C5.3195 1.5 6.18788 1.92752 6.73838 2.57453L7.49971 3.4693L8.26137 2.57482C8.81263 1.92743 9.6812 1.5 10.542 1.5C12.0811 1.5 13.25 2.66891 13.25 4.208C13.25 5.16664 12.8331 6.11244 11.897 7.26598Z" stroke="black" stroke-width="2"/>
</svg>
