<svg width="114" height="113" viewBox="0 0 114 113" fill="none" xmlns="http://www.w3.org/2000/svg">
<path d="M57.2427 9.59531C31.3981 9.59531 10.3379 30.6555 10.3379 56.5001C10.3379 82.3446 31.3981 103.405 57.2427 103.405C83.0872 103.405 104.147 82.3446 104.147 56.5001C104.147 30.6555 83.0872 9.59531 57.2427 9.59531ZM79.6631 45.712L53.0681 72.307C52.4115 72.9636 51.5203 73.3389 50.5822 73.3389C49.6441 73.3389 48.7529 72.9636 48.0962 72.307L34.8222 59.0329C33.4619 57.6727 33.4619 55.4213 34.8222 54.061C36.1824 52.7008 38.4338 52.7008 39.7941 54.061L50.5822 64.8491L74.6912 40.7401C76.0515 39.3798 78.3029 39.3798 79.6631 40.7401C81.0234 42.1003 81.0234 44.3048 79.6631 45.712Z" fill="#43B749"/>
</svg>
