<svg width="18" height="19" viewBox="0 0 18 19" fill="none" xmlns="http://www.w3.org/2000/svg">
<rect y="0.5" width="18" height="18" rx="9" fill="url(#paint0_linear_475_4668)"/>
<path d="M3.54071 14.7361L4.31241 11.9338C3.83531 11.1113 3.58503 10.1798 3.58764 9.22753C3.58764 6.24362 6.02788 3.81757 9.02343 3.81757C10.4782 3.81757 11.8443 4.38062 12.8689 5.40293C13.8961 6.42525 14.4618 7.78487 14.4592 9.23012C14.4592 12.214 12.019 14.6401 9.02082 14.6401H9.01822C8.10834 14.6401 7.21411 14.4118 6.41894 13.981L3.54071 14.7361ZM6.55712 13.0028L6.72137 13.1014C7.41485 13.5114 8.21002 13.7268 9.02082 13.7293H9.02343C11.5132 13.7293 13.5415 11.7133 13.5415 9.23272C13.5415 8.03137 13.0723 6.90267 12.2197 6.05161C11.3672 5.20054 10.2305 4.7335 9.02343 4.7335C6.53366 4.7309 4.50534 6.74699 4.50534 9.22753C4.50534 10.076 4.74258 10.9037 5.19622 11.6198L5.30311 11.7911L4.84687 13.4491L6.55712 13.0028Z" fill="white"/>
<path d="M3.73102 14.5467L4.47665 11.8404C4.01519 11.049 3.77273 10.1486 3.77273 9.2301C3.77534 6.34998 6.12955 4.00696 9.02342 4.00696C10.4286 4.00696 11.7452 4.55185 12.7359 5.53784C13.7266 6.52382 14.2715 7.83675 14.2715 9.2327C14.2715 12.1128 11.9147 14.4558 9.02342 14.4558H9.02081C8.14222 14.4558 7.27927 14.2353 6.51279 13.8201L3.73102 14.5467Z" fill="url(#paint1_linear_475_4668)"/>
<path d="M3.54071 14.7361L4.31241 11.9338C3.83531 11.1113 3.58503 10.1798 3.58764 9.22753C3.58764 6.24362 6.02788 3.81757 9.02343 3.81757C10.4782 3.81757 11.8443 4.38062 12.8689 5.40293C13.8961 6.42525 14.4618 7.78487 14.4592 9.23012C14.4592 12.214 12.019 14.6401 9.02082 14.6401H9.01822C8.10834 14.6401 7.21411 14.4118 6.41894 13.981L3.54071 14.7361ZM6.55712 13.0028L6.72137 13.1014C7.41485 13.5114 8.21002 13.7268 9.02082 13.7293H9.02343C11.5132 13.7293 13.5415 11.7133 13.5415 9.23272C13.5415 8.03137 13.0723 6.90267 12.2197 6.05161C11.3672 5.20054 10.2305 4.7335 9.02343 4.7335C6.53366 4.7309 4.50534 6.74699 4.50534 9.22753C4.50534 10.076 4.74258 10.9037 5.19622 11.6198L5.30311 11.7911L4.84687 13.4491L6.55712 13.0028Z" fill="url(#paint2_linear_475_4668)"/>
<path fill-rule="evenodd" clip-rule="evenodd" d="M7.66507 6.96494C7.56339 6.7392 7.4565 6.73401 7.36004 6.73142C7.28183 6.72882 7.19058 6.72882 7.09933 6.72882C7.00808 6.72882 6.86208 6.76255 6.73694 6.89748C6.6118 7.0324 6.26245 7.35933 6.26245 8.02617C6.26245 8.69042 6.74998 9.33391 6.81776 9.42472C6.88555 9.51554 7.75892 10.9245 9.13808 11.4668C10.2852 11.9182 10.5198 11.8274 10.7675 11.8041C11.0152 11.7807 11.5705 11.4771 11.6852 11.1606C11.7973 10.844 11.7973 10.5742 11.7634 10.5171C11.7295 10.46 11.6383 10.4263 11.5027 10.3588C11.3671 10.2914 10.6997 9.96442 10.5746 9.91772C10.4494 9.87361 10.3582 9.85025 10.2696 9.98518C10.1783 10.1201 9.9176 10.4237 9.83939 10.5145C9.76117 10.6053 9.68035 10.6157 9.54478 10.5482C9.40922 10.4808 8.97122 10.3381 8.45241 9.8762C8.04831 9.51813 7.77457 9.07444 7.69635 8.93951C7.61814 8.80459 7.68853 8.73193 7.75632 8.66447C7.81628 8.60479 7.89189 8.50619 7.95967 8.42835C8.02745 8.35051 8.05092 8.29343 8.09524 8.20261C8.13956 8.1118 8.1187 8.03396 8.08481 7.9665C8.05092 7.90163 7.78499 7.23219 7.66507 6.96494Z" fill="white"/>
<defs>
<linearGradient id="paint0_linear_475_4668" x1="8.99953" y1="18.4991" x2="8.99953" y2="0.49937" gradientUnits="userSpaceOnUse">
<stop stop-color="#20B038"/>
<stop offset="1" stop-color="#60D66A"/>
</linearGradient>
<linearGradient id="paint1_linear_475_4668" x1="9.00099" y1="14.5461" x2="9.00099" y2="4.00659" gradientUnits="userSpaceOnUse">
<stop stop-color="#20B038"/>
<stop offset="1" stop-color="#60D66A"/>
</linearGradient>
<linearGradient id="paint2_linear_475_4668" x1="9.00103" y1="14.7351" x2="9.00103" y2="3.81757" gradientUnits="userSpaceOnUse">
<stop stop-color="#F9F9F9"/>
<stop offset="1" stop-color="white"/>
</linearGradient>
</defs>
</svg>
